<svg width="16" height="16" viewBox="0 0 16 16" fill="none" xmlns="http://www.w3.org/2000/svg">
<g id="icon/device/access_time_24px">
<path id="icon/device/access_time_24px_2" fill-rule="evenodd" clip-rule="evenodd" d="M7.99325 1.33331C4.31325 1.33331 1.33325 4.31998 1.33325 7.99998C1.33325 11.68 4.31325 14.6666 7.99325 14.6666C11.6799 14.6666 14.6666 11.68 14.6666 7.99998C14.6666 4.31998 11.6799 1.33331 7.99325 1.33331ZM7.99992 13.3333C5.05325 13.3333 2.66659 10.9466 2.66659 7.99998C2.66659 5.05331 5.05325 2.66665 7.99992 2.66665C10.9466 2.66665 13.3333 5.05331 13.3333 7.99998C13.3333 10.9466 10.9466 13.3333 7.99992 13.3333ZM7.81325 4.66665H7.85325C8.11992 4.66665 8.33325 4.87998 8.33325 5.14665V8.17331L10.9133 9.70665C11.1466 9.83998 11.2199 10.14 11.0799 10.3666C10.9466 10.5933 10.6533 10.66 10.4266 10.5266L7.65992 8.86665C7.45325 8.74665 7.33325 8.52665 7.33325 8.29331V5.14665C7.33325 4.87998 7.54659 4.66665 7.81325 4.66665Z" fill="#FF8980"/>
</g>
</svg>
