<svg width="195" height="366" viewBox="0 0 195 366" fill="none" xmlns="http://www.w3.org/2000/svg">
<path d="M88.6832 311.908C88.6832 322.279 88.6832 332.624 88.6574 342.995C88.6574 343.973 88.8633 344.617 89.6868 345.26C92.389 347.344 92.6463 351.256 90.3302 353.727C88.0398 356.197 84.1024 356.172 81.812 353.701C79.5216 351.205 79.8046 347.344 82.5325 345.26C83.3303 344.642 83.5105 343.999 83.5105 343.098C83.4847 322.999 83.4847 302.875 83.5105 282.776C83.5105 281.798 83.2274 281.103 82.5325 280.408C77.1025 275.029 71.7239 269.574 66.2681 264.221C65.213 263.191 64.8527 262.162 64.8527 260.721C64.9041 250.298 64.8784 239.901 64.9041 229.479C64.9041 228.449 64.6468 227.703 63.9005 226.982C57.8271 220.96 51.7794 214.913 45.7317 208.839C45.114 208.222 44.5479 207.99 43.6214 208.119C40.3016 208.608 37.3421 206.111 37.1362 202.817C36.9303 199.395 39.5553 196.564 42.9266 196.59C46.2464 196.615 48.9485 199.395 48.614 202.74C48.4596 204.078 48.9228 204.825 49.772 205.674C56.2058 212.082 62.6395 218.49 69.0217 224.949C69.5879 225.516 69.9739 226.493 69.9739 227.291C70.0254 237.894 70.0254 248.497 69.9997 259.1C69.9997 260.18 70.3085 260.952 71.0805 261.725C76.5878 267.18 82.0436 272.688 87.5508 278.118C88.3744 278.915 88.6832 279.739 88.6574 280.871C88.6832 291.165 88.6832 301.536 88.6832 311.908ZM43.0295 204.567C44.4192 204.542 45.217 203.692 45.1912 202.303C45.1655 201.042 44.1104 200.089 42.8494 200.141C41.6398 200.192 40.7134 201.17 40.7134 202.38C40.7134 203.667 41.717 204.619 43.0295 204.567ZM88.3486 349.789C88.3744 348.657 87.242 347.396 86.1869 347.37C85.1575 347.344 83.9222 348.58 83.8965 349.686C83.845 350.922 84.8487 351.977 86.084 352.002C87.2935 352.002 88.3229 351.025 88.3486 349.789Z" fill="#29A0B7"/>
<path d="M76.1246 174.406C76.1246 177.726 76.0732 181.071 76.1761 184.391C76.2018 185.112 76.5621 185.961 77.0511 186.476C80.165 189.693 83.3047 192.858 86.5215 195.972C87.3965 196.821 87.7825 197.696 87.7825 198.957C87.7311 215.685 87.7568 232.412 87.7311 249.166C87.7311 250.272 87.9112 251.045 88.8891 251.817C91.5141 253.85 91.6428 257.761 89.3781 260.18C87.062 262.625 83.1245 262.574 80.8599 260.103C78.6209 257.658 78.8783 253.772 81.529 251.739C82.3525 251.096 82.6098 250.453 82.6098 249.475C82.5841 233.262 82.5841 217.049 82.6098 200.836C82.6098 199.806 82.301 199.06 81.5804 198.34C78.4408 195.277 75.4041 192.137 72.2644 189.101C71.338 188.2 70.9519 187.299 70.9519 185.987C71.0034 178.807 70.9777 171.627 71.0034 164.447C71.0034 163.546 70.8233 162.903 70.0255 162.285C67.2461 160.097 67.0402 156.186 69.4593 153.741C71.7754 151.373 75.6357 151.425 77.8746 153.87C80.1908 156.417 79.8047 160.226 77.1026 162.465C76.6136 162.877 76.2018 163.675 76.2018 164.318C76.0732 167.638 76.1246 171.009 76.1246 174.406ZM87.3965 256.243C87.448 255.111 86.3671 253.85 85.2605 253.747C84.2826 253.644 82.9701 254.905 82.8929 256.011C82.8157 257.221 83.7936 258.328 85.0289 258.379C86.2642 258.456 87.345 257.478 87.3965 256.243ZM75.7901 157.807C75.8158 156.546 74.8122 155.517 73.5769 155.517C72.3673 155.517 71.3122 156.546 71.3122 157.781C71.3122 158.914 72.4703 160.149 73.5254 160.175C74.5805 160.2 75.7901 158.939 75.7901 157.807Z" fill="#29A0B7"/>
<path d="M105.746 203.976C105.746 203.178 105.668 202.355 105.771 201.557C106.003 199.936 105.385 198.778 104.201 197.697C103.275 196.848 102.503 196.384 101.139 196.487C97.8192 196.796 95.1428 194.197 95.0913 190.903C95.0399 187.583 97.6134 184.984 100.933 185.009C104.201 185.035 106.904 187.712 106.595 191.006C106.44 192.524 106.929 193.476 108.01 194.248C110.481 196.024 111.304 198.34 110.995 201.351C110.738 204.13 110.995 206.961 110.893 209.766C110.867 210.436 110.481 211.156 110.095 211.748C109.709 212.34 109.143 212.803 108.602 213.266C107.29 214.45 106.389 215.583 106.543 217.693C106.775 220.832 103.79 223.226 100.496 223.071C97.3817 222.917 94.9627 220.241 95.1171 217.049C95.2457 213.858 97.845 211.439 101.036 211.542C101.937 211.568 102.863 211.954 103.635 210.976C104.613 209.741 106.183 208.943 105.823 206.961C105.591 205.983 105.746 204.98 105.746 203.976ZM100.882 215.094C99.6464 215.094 98.617 216.097 98.617 217.332C98.617 218.542 99.6721 219.597 100.882 219.571C102.117 219.546 103.121 218.516 103.095 217.281C103.069 215.943 102.22 215.094 100.882 215.094ZM100.907 188.561C99.6721 188.535 98.617 189.539 98.617 190.774C98.5913 192.009 99.6207 193.039 100.856 193.039C102.22 193.064 103.043 192.267 103.095 190.903C103.121 189.642 102.143 188.587 100.907 188.561Z" fill="#29A0B7"/>
<path d="M50.4156 169.337C52.8346 169.337 54.9706 170.804 55.8456 173.043C56.7206 175.333 56.1287 178.01 54.1986 179.502C53.2464 180.223 53.092 181.021 52.9633 182.127C52.6802 184.675 53.5295 186.528 55.4853 188.175C57.4669 189.848 59.1654 191.855 61.0698 193.656C61.4816 194.042 62.2279 194.3 62.7683 194.248C66.3969 193.914 69.3564 196.307 69.5109 199.781C69.6395 203.127 66.8602 205.932 63.4889 205.803C60.0147 205.675 57.5956 202.689 57.9559 199.086C58.0074 198.546 57.75 197.774 57.364 197.388C54.6361 194.557 51.8567 191.752 49.0001 189.024C48.1252 188.175 47.7391 187.326 47.8421 186.142C47.9193 185.344 47.8163 184.52 47.8678 183.723C47.945 181.87 47.8421 180.3 46.1178 178.885C44.3164 177.392 44.1877 175.05 45.1399 172.837C46.0406 170.649 48.0994 169.337 50.4156 169.337ZM52.6288 175.204C52.6545 173.969 51.6766 172.94 50.4413 172.914C49.2318 172.888 48.1766 173.918 48.1766 175.153C48.1766 176.26 49.309 177.521 50.3898 177.572C51.4192 177.572 52.603 176.337 52.6288 175.204ZM63.669 197.748C62.2536 197.748 61.4558 198.546 61.4558 199.961C61.4558 201.248 62.4595 202.226 63.7205 202.2C64.9043 202.175 65.8822 201.197 65.908 200.013C65.9337 198.752 64.93 197.722 63.669 197.748Z" fill="#29A0B7"/>
<path d="M43.467 237.096C40.0957 237.379 37.2649 234.883 37.1876 231.563C37.0847 228.192 39.6839 225.516 43.0295 225.541C46.3493 225.567 49 228.347 48.6911 231.692C48.5625 232.927 48.8198 233.828 49.7977 234.497C52.5514 236.427 53.4778 239.001 53.0918 242.346C52.8087 244.791 52.9889 247.287 53.0661 249.758C53.0918 250.35 53.4521 251.122 53.9153 251.508C56.6947 253.85 57.055 257.684 54.6616 260.181C52.3455 262.6 48.4081 262.574 46.1691 260.078C43.8787 257.53 44.2647 253.773 47.0184 251.508C47.4816 251.122 47.8419 250.376 47.8676 249.784C47.9448 246.927 47.9191 244.096 47.8934 241.24C47.8419 239.104 45.4743 236.916 43.467 237.096ZM42.9008 229.093C41.6655 229.119 40.6619 230.148 40.7133 231.383C40.7648 232.619 41.7685 233.596 43.0295 233.545C44.3934 233.494 45.1912 232.67 45.1912 231.306C45.1655 230.071 44.1361 229.067 42.9008 229.093ZM52.6286 256.217C52.6543 255.059 51.5734 253.824 50.4926 253.747C49.4889 253.67 48.2279 254.931 48.1764 256.037C48.125 257.273 49.1029 258.328 50.3124 258.379C51.5734 258.431 52.6028 257.478 52.6286 256.217Z" fill="#29A0B7"/>
<path d="M118.474 233.065C118.474 230.64 118.445 228.186 118.502 225.762C118.531 224.827 118.245 224.272 117.5 223.717C114.923 221.73 114.493 217.961 116.441 215.391C118.416 212.849 121.939 212.352 124.487 214.28C127.064 216.209 127.609 219.948 125.661 222.607C125.518 222.811 125.404 223.045 125.203 223.162C123.514 224.067 123.542 225.586 123.571 227.252C123.628 232.277 123.571 237.272 123.628 242.297C123.628 243.407 123.342 244.196 122.569 244.985C117.844 249.747 113.176 254.538 108.48 259.3C107.821 259.972 107.506 260.556 107.649 261.579C108.079 265.143 105.473 268.152 102.037 268.21C98.6291 268.269 95.9374 265.435 96.0805 261.929C96.2237 258.482 99.1732 255.969 102.638 256.437C103.554 256.554 104.127 256.291 104.757 255.648C108.995 251.295 113.233 246.942 117.5 242.648C118.216 241.946 118.474 241.216 118.474 240.223C118.416 237.827 118.474 235.461 118.474 233.065ZM123.285 219.13C123.313 217.874 122.311 216.793 121.08 216.793C119.82 216.764 118.789 217.815 118.789 219.072C118.789 220.24 119.934 221.496 120.994 221.526C122.053 221.526 123.256 220.269 123.285 219.13ZM104.127 262.309C104.156 260.877 103.383 260.059 102.008 260.001C100.748 259.972 99.7173 260.936 99.66 262.192C99.6314 263.448 100.634 264.529 101.865 264.558C103.068 264.588 104.099 263.565 104.127 262.309Z" fill="#29A0B7"/>
<g filter="url(#filter0_d)">
<path d="M133.71 24.4606C142.673 33.424 148.625 44.2519 152.425 56.2271C154.218 61.892 154.576 67.8437 154.648 73.7955C154.935 97.459 155.078 121.123 155.15 144.858C155.222 171.175 155.007 197.491 154.935 223.665C154.935 233.991 154.075 244.173 150.346 254.069C137.797 287.269 103.449 307.276 68.5989 300.679C38.4817 294.942 19.264 276.728 10.2288 247.615C8.50785 242.022 7.93418 236.285 8.00589 230.477C8.0776 177.198 8.07761 123.991 8.22102 70.6404C8.22102 58.8803 12.3801 48.2675 18.4752 38.4436C42.4973 -0.493711 92.1907 -7.30593 125.75 17.7918C128.475 19.7996 131.056 22.2376 133.71 24.4606ZM22.9928 137.185C22.9928 145.188 29.475 151.742 37.4781 151.742C71.6392 151.742 105.691 151.742 139.633 151.742C139.807 151.742 139.948 151.638 139.993 151.47C140.002 151.437 140.02 151.366 140.02 151.331C139.876 125.677 139.804 99.9514 139.446 74.2257C139.231 60.3862 134.929 48.0524 124.961 38.2285C120.946 34.2128 117.073 29.9104 112.341 26.8987C86.239 10.6927 52.8232 17.1464 34.3943 41.7421C27.4387 50.9924 23.3514 61.39 23.2797 73.2218C23.2079 94.519 23.0645 115.888 22.9928 137.185Z" fill="#29A0B7"/>
<path d="M138.946 74.2327C139.233 94.8035 139.336 115.374 139.439 135.91C139.465 141.023 139.491 146.134 139.519 151.242H88.6377L37.4781 151.242C29.7546 151.242 23.4933 144.916 23.4928 137.186C23.5287 126.538 23.5824 115.873 23.6362 105.207L23.6362 105.206L23.6362 105.205C23.69 94.5392 23.7438 83.8727 23.7796 73.2241C23.8508 61.5154 27.893 51.2202 34.794 42.0426L34.7945 42.042C53.0689 17.6523 86.1956 11.256 112.074 27.3219C115.965 29.7985 119.264 33.156 122.594 36.545C123.262 37.225 123.932 37.9063 124.608 38.582L124.61 38.5846C134.468 48.3001 138.733 60.4996 138.946 74.2327ZM138.946 74.2327L139.446 74.2257M138.946 74.2327C138.946 74.233 138.946 74.2333 138.946 74.2335L139.446 74.2257M139.446 74.2257C139.231 60.3862 134.929 48.0524 124.961 38.2285L22.9928 137.185C22.9928 145.188 29.475 151.742 37.4781 151.742L139.633 151.742C139.807 151.742 139.948 151.638 139.993 151.47C140.002 151.437 140.02 151.366 140.02 151.331C139.991 146.193 139.965 141.053 139.939 135.91C139.836 115.373 139.733 94.7992 139.446 74.2257ZM134.063 24.107L134.048 24.0914L134.031 24.0773C133.163 23.3506 132.295 22.5932 131.423 21.8319C129.661 20.2942 127.88 18.7405 126.048 17.3904C92.2654 -7.87332 42.2333 -1.01803 18.0497 38.1811C11.9245 48.0536 7.72118 58.7572 7.72102 70.6397C7.62541 106.207 7.59354 141.712 7.56167 177.215C7.54573 194.965 7.5298 212.716 7.5059 230.473C7.43395 236.317 8.01101 242.107 9.75094 247.762L9.7513 247.763C14.2902 262.388 21.3952 274.302 31.1698 283.281C40.9456 292.262 53.3677 298.286 68.5054 301.17L68.5059 301.17C103.603 307.814 138.182 287.665 150.813 254.245L150.814 254.245C154.573 244.268 155.435 234.016 155.435 223.666C155.459 214.969 155.498 206.256 155.538 197.532C155.618 180.003 155.698 162.429 155.65 144.856C155.578 121.12 155.435 97.4549 155.148 73.7895C155.076 67.8279 154.718 61.8147 152.902 56.0763L152.902 56.0759C149.082 44.039 143.093 33.137 134.063 24.107Z" stroke="#29A0B7"/>
</g>
<rect x="35.8433" y="71.4001" width="15.3783" height="67.9209" rx="7.68915" fill="url(#paint0_linear)"/>
<mask id="mask0" mask-type="alpha" maskUnits="userSpaceOnUse" x="37" y="162" width="91" height="204">
<path d="M89.0334 321.908C89.0334 332.279 89.0334 342.624 89.0077 352.995C89.0077 353.973 89.2135 354.617 90.0371 355.26C92.7392 357.344 92.9966 361.256 90.6804 363.727C88.39 366.197 84.4526 366.172 82.1622 363.701C79.8718 361.205 80.1549 357.344 82.8828 355.26C83.6805 354.642 83.8607 353.999 83.8607 353.098C83.8349 332.999 83.8349 312.875 83.8607 292.776C83.8607 291.798 83.5776 291.103 82.8828 290.408C77.4527 285.029 72.0741 279.574 66.6183 274.221C65.5632 273.191 65.2029 272.162 65.2029 270.721C65.2544 260.298 65.2286 249.901 65.2544 239.479C65.2544 238.449 64.997 237.703 64.2507 236.982C58.1773 230.96 52.1296 224.913 46.0819 218.839C45.4642 218.222 44.8981 217.99 43.9716 218.119C40.6518 218.608 37.6923 216.111 37.4864 212.817C37.2806 209.395 39.9055 206.564 43.2768 206.59C46.5966 206.615 49.2987 209.395 48.9642 212.74C48.8098 214.078 49.273 214.825 50.1223 215.674C56.556 222.082 62.9897 228.49 69.3719 234.949C69.9381 235.516 70.3241 236.493 70.3241 237.291C70.3756 247.894 70.3756 258.497 70.3499 269.1C70.3499 270.18 70.6587 270.952 71.4307 271.725C76.938 277.18 82.3938 282.688 87.9011 288.118C88.7246 288.915 89.0334 289.739 89.0077 290.871C89.0334 301.165 89.0334 311.536 89.0334 321.908ZM43.3797 214.567C44.7694 214.542 45.5672 213.692 45.5414 212.303C45.5157 211.042 44.4606 210.089 43.1996 210.141C41.99 210.192 41.0636 211.17 41.0636 212.38C41.0636 213.667 42.0672 214.619 43.3797 214.567ZM88.6988 359.789C88.7246 358.657 87.5922 357.396 86.5371 357.37C85.5077 357.344 84.2724 358.58 84.2467 359.686C84.1952 360.922 85.1989 361.977 86.4342 362.002C87.6437 362.002 88.6731 361.025 88.6988 359.789Z" fill="white"/>
<path d="M76.4747 184.406C76.4747 187.726 76.4233 191.071 76.5262 194.391C76.5519 195.112 76.9122 195.961 77.4012 196.476C80.5151 199.693 83.6548 202.858 86.8716 205.972C87.7466 206.821 88.1326 207.696 88.1326 208.957C88.0812 225.685 88.1069 242.412 88.0812 259.166C88.0812 260.272 88.2613 261.045 89.2392 261.817C91.8642 263.85 91.9929 267.761 89.7282 270.18C87.4121 272.625 83.4746 272.574 81.21 270.103C78.971 267.658 79.2284 263.772 81.8791 261.739C82.7026 261.096 82.9599 260.453 82.9599 259.475C82.9342 243.262 82.9342 227.049 82.9599 210.836C82.9599 209.806 82.6511 209.06 81.9305 208.34C78.7909 205.277 75.7542 202.137 72.6145 199.101C71.688 198.2 71.302 197.299 71.302 195.987C71.3535 188.807 71.3278 181.627 71.3535 174.447C71.3535 173.546 71.1734 172.903 70.3756 172.285C67.5962 170.097 67.3903 166.186 69.8094 163.741C72.1255 161.373 75.9858 161.425 78.2247 163.87C80.5408 166.417 80.1548 170.226 77.4527 172.465C76.9637 172.877 76.5519 173.675 76.5519 174.318C76.4233 177.638 76.4747 181.009 76.4747 184.406ZM87.7466 266.243C87.7981 265.111 86.7172 263.85 85.6106 263.747C84.6327 263.644 83.3202 264.905 83.243 266.011C83.1658 267.221 84.1437 268.328 85.379 268.379C86.6143 268.456 87.6951 267.478 87.7466 266.243ZM76.1402 167.807C76.1659 166.546 75.1623 165.517 73.927 165.517C72.7174 165.517 71.6623 166.546 71.6623 167.781C71.6623 168.914 72.8204 170.149 73.8755 170.175C74.9306 170.2 76.1402 168.939 76.1402 167.807Z" fill="white"/>
<path d="M106.096 213.976C106.096 213.178 106.018 212.355 106.121 211.557C106.353 209.936 105.735 208.778 104.552 207.697C103.625 206.848 102.853 206.384 101.489 206.487C98.1693 206.796 95.4929 204.197 95.4414 200.903C95.39 197.583 97.9635 194.984 101.283 195.009C104.552 195.035 107.254 197.712 106.945 201.006C106.791 202.524 107.279 203.476 108.36 204.248C110.831 206.024 111.654 208.34 111.346 211.351C111.088 214.13 111.346 216.961 111.243 219.766C111.217 220.436 110.831 221.156 110.445 221.748C110.059 222.34 109.493 222.803 108.952 223.266C107.64 224.45 106.739 225.583 106.893 227.693C107.125 230.832 104.14 233.226 100.846 233.071C97.7318 232.917 95.3128 230.241 95.4672 227.049C95.5958 223.858 98.1951 221.439 101.386 221.542C102.287 221.568 103.213 221.954 103.985 220.976C104.963 219.741 106.533 218.943 106.173 216.961C105.941 215.983 106.096 214.98 106.096 213.976ZM101.232 225.094C99.9965 225.094 98.9671 226.097 98.9671 227.332C98.9671 228.542 100.022 229.597 101.232 229.571C102.467 229.546 103.471 228.516 103.445 227.281C103.419 225.943 102.57 225.094 101.232 225.094ZM101.258 198.561C100.022 198.535 98.9671 199.539 98.9671 200.774C98.9414 202.009 99.9708 203.039 101.206 203.039C102.57 203.064 103.394 202.267 103.445 200.903C103.471 199.642 102.493 198.587 101.258 198.561Z" fill="white"/>
<path d="M50.7657 179.337C53.1847 179.337 55.3207 180.804 56.1957 183.043C57.0707 185.333 56.4788 188.01 54.5487 189.502C53.5965 190.223 53.4421 191.021 53.3134 192.127C53.0303 194.675 53.8796 196.528 55.8354 198.175C57.817 199.848 59.5155 201.855 61.4199 203.656C61.8317 204.042 62.578 204.3 63.1184 204.248C66.747 203.914 69.7065 206.307 69.8609 209.781C69.9896 213.127 67.2103 215.932 63.839 215.803C60.3648 215.675 57.9457 212.689 58.306 209.086C58.3575 208.546 58.1001 207.774 57.7141 207.388C54.9862 204.557 52.2068 201.752 49.3502 199.024C48.4753 198.175 48.0892 197.326 48.1922 196.142C48.2694 195.344 48.1664 194.52 48.2179 193.723C48.2951 191.87 48.1922 190.3 46.4679 188.885C44.6665 187.392 44.5378 185.05 45.49 182.837C46.3907 180.649 48.4495 179.337 50.7657 179.337ZM52.9789 185.204C53.0046 183.969 52.0267 182.94 50.7914 182.914C49.5819 182.888 48.5267 183.918 48.5267 185.153C48.5267 186.26 49.6591 187.521 50.7399 187.572C51.7693 187.572 52.9531 186.337 52.9789 185.204ZM64.0191 207.748C62.6037 207.748 61.8059 208.546 61.8059 209.961C61.8059 211.248 62.8096 212.226 64.0706 212.2C65.2544 212.175 66.2323 211.197 66.2581 210.013C66.2838 208.752 65.2801 207.722 64.0191 207.748Z" fill="white"/>
<path d="M43.8171 247.097C40.4458 247.38 37.6149 244.883 37.5377 241.564C37.4348 238.192 40.034 235.516 43.3796 235.542C46.6994 235.567 49.3501 238.347 49.0412 241.692C48.9126 242.928 49.1699 243.828 50.1478 244.497C52.9015 246.428 53.8279 249.001 53.4419 252.347C53.1588 254.791 53.339 257.288 53.4162 259.758C53.4419 260.35 53.8022 261.122 54.2654 261.508C57.0448 263.85 57.4051 267.685 55.0117 270.181C52.6956 272.6 48.7582 272.574 46.5192 270.078C44.2288 267.53 44.6148 263.773 47.3685 261.508C47.8317 261.122 48.192 260.376 48.2177 259.784C48.2949 256.927 48.2692 254.097 48.2435 251.24C48.192 249.104 45.8244 246.917 43.8171 247.097ZM43.2509 239.093C42.0156 239.119 41.012 240.148 41.0634 241.384C41.1149 242.619 42.1186 243.597 43.3796 243.545C44.7435 243.494 45.5413 242.67 45.5413 241.306C45.5156 240.071 44.4862 239.067 43.2509 239.093ZM52.9787 266.218C53.0044 265.06 51.9235 263.824 50.8427 263.747C49.839 263.67 48.578 264.931 48.5265 266.038C48.4751 267.273 49.453 268.328 50.6625 268.379C51.9235 268.431 52.9529 267.479 52.9787 266.218Z" fill="white"/>
<path d="M118.824 237.066C118.824 234.641 118.795 232.187 118.853 229.762C118.881 228.827 118.595 228.272 117.85 227.717C115.273 225.73 114.844 221.962 116.791 219.391C118.767 216.849 122.289 216.353 124.837 218.281C127.415 220.209 127.959 223.948 126.011 226.607C125.868 226.811 125.754 227.045 125.553 227.162C123.864 228.068 123.892 229.587 123.921 231.252C123.978 236.277 123.921 241.272 123.978 246.297C123.978 247.407 123.692 248.196 122.919 248.985C118.194 253.747 113.526 258.538 108.83 263.3C108.171 263.972 107.856 264.556 108 265.579C108.429 269.143 105.823 272.152 102.387 272.21C98.9793 272.269 96.2876 269.435 96.4308 265.929C96.5739 262.482 99.5234 259.97 102.988 260.437C103.905 260.554 104.477 260.291 105.107 259.648C109.345 255.295 113.584 250.942 117.85 246.648C118.566 245.947 118.824 245.216 118.824 244.223C118.767 241.827 118.824 239.461 118.824 237.066ZM123.635 223.13C123.663 221.874 122.661 220.793 121.43 220.793C120.17 220.764 119.139 221.816 119.139 223.072C119.139 224.24 120.284 225.497 121.344 225.526C122.403 225.526 123.606 224.27 123.635 223.13ZM104.477 266.309C104.506 264.878 103.733 264.06 102.358 264.001C101.098 263.972 100.067 264.936 100.01 266.192C99.9816 267.448 100.984 268.529 102.215 268.559C103.418 268.588 104.449 267.565 104.477 266.309Z" fill="white"/>
</mask>
<g mask="url(#mask0)">
<path d="M70.5042 301.091C91.3166 303.321 96.3483 300.878 99.3385 299.81L137.144 275.461V160.123H28.2139V265.208C36.1166 276.529 55.1372 299.445 70.5042 301.091Z" fill="white"/>
</g>
<path d="M7.45976 326.764C7.45976 327.612 7.76009 328.495 8.36076 329.414C8.99676 330.333 9.72109 331.11 10.5338 331.746C12.0178 332.912 13.7491 333.495 15.7278 333.495C18.8724 333.495 21.4341 331.976 23.4128 328.937L27.4408 331.322C26.0628 333.548 24.3668 335.262 22.3528 336.463C20.3388 337.664 18.1304 338.265 15.7278 338.265C13.9258 338.265 12.2121 337.929 10.5868 337.258C8.96142 336.551 7.53042 335.58 6.29376 334.343C5.05709 333.106 4.08542 331.675 3.37875 330.05C2.70742 328.425 2.37175 326.711 2.37175 324.909C2.37175 323.107 2.70742 321.393 3.37875 319.768C4.08542 318.107 5.05709 316.659 6.29376 315.422C7.49509 314.185 8.90842 313.231 10.5338 312.56C12.1944 311.889 13.9258 311.553 15.7278 311.553C17.5298 311.553 19.2434 311.889 20.8688 312.56C22.5294 313.231 23.9604 314.185 25.1618 315.422C27.7764 318.107 29.0838 321.217 29.0838 324.75C29.0838 325.386 29.0308 326.057 28.9248 326.764H7.45976ZM15.7278 315.899C14.2791 315.899 12.9188 316.217 11.6468 316.853C10.3748 317.489 9.35009 318.337 8.57276 319.397C7.83076 320.422 7.45976 321.517 7.45976 322.683H23.9958C23.9958 321.517 23.6071 320.422 22.8298 319.397C22.0878 318.337 21.0808 317.489 19.8088 316.853C18.5368 316.217 17.1764 315.899 15.7278 315.899ZM83.8619 338V310.387L73.3679 325.545H69.7639L59.3229 310.387V338H54.5529V302.755H59.7999L71.5659 319.768L83.3319 302.755H88.6319V338H83.8619ZM119.199 326.764C119.199 327.612 119.499 328.495 120.1 329.414C120.736 330.333 121.46 331.11 122.273 331.746C123.757 332.912 125.488 333.495 127.467 333.495C130.611 333.495 133.173 331.976 135.152 328.937L139.18 331.322C137.802 333.548 136.106 335.262 134.092 336.463C132.078 337.664 129.869 338.265 127.467 338.265C125.665 338.265 123.951 337.929 122.326 337.258C120.7 336.551 119.269 335.58 118.033 334.343C116.796 333.106 115.824 331.675 115.118 330.05C114.446 328.425 114.111 326.711 114.111 324.909C114.111 323.107 114.446 321.393 115.118 319.768C115.824 318.107 116.796 316.659 118.033 315.422C119.234 314.185 120.647 313.231 122.273 312.56C123.933 311.889 125.665 311.553 127.467 311.553C129.269 311.553 130.982 311.889 132.608 312.56C134.268 313.231 135.699 314.185 136.901 315.422C139.515 318.107 140.823 321.217 140.823 324.75C140.823 325.386 140.77 326.057 140.664 326.764H119.199ZM127.467 315.899C126.018 315.899 124.658 316.217 123.386 316.853C122.114 317.489 121.089 318.337 120.312 319.397C119.57 320.422 119.199 321.517 119.199 322.683H135.735C135.735 321.517 135.346 320.422 134.569 319.397C133.827 318.337 132.82 317.489 131.548 316.853C130.276 316.217 128.915 315.899 127.467 315.899ZM187.451 338V333.919C186.321 335.262 184.978 336.322 183.423 337.099C181.904 337.876 180.314 338.265 178.653 338.265C176.781 338.265 175.032 337.929 173.406 337.258C171.781 336.551 170.368 335.562 169.166 334.29C167.93 333.018 166.958 331.569 166.251 329.944C165.58 328.283 165.244 326.534 165.244 324.697C165.244 322.86 165.58 321.128 166.251 319.503C166.958 317.842 167.93 316.376 169.166 315.104C170.368 313.832 171.781 312.86 173.406 312.189C175.032 311.482 176.781 311.129 178.653 311.129C180.491 311.129 182.151 311.5 183.635 312.242C185.155 312.984 186.427 314.009 187.451 315.316V302.808H192.115V338H187.451ZM178.653 315.952C177.487 315.952 176.374 316.182 175.314 316.641C174.254 317.065 173.336 317.683 172.558 318.496C171.781 319.309 171.163 320.263 170.703 321.358C170.244 322.418 170.014 323.531 170.014 324.697C170.014 327.064 170.862 329.131 172.558 330.898C173.336 331.711 174.254 332.347 175.314 332.806C176.374 333.265 177.487 333.495 178.653 333.495C179.819 333.495 180.932 333.265 181.992 332.806C183.088 332.347 184.024 331.711 184.801 330.898C186.497 329.131 187.345 327.064 187.345 324.697C187.345 323.531 187.116 322.418 186.656 321.358C186.197 320.263 185.579 319.309 184.801 318.496C184.024 317.683 183.088 317.065 181.992 316.641C180.932 316.182 179.819 315.952 178.653 315.952Z" fill="#29A0B7"/>
<defs>
<filter id="filter0_d" x="1" y="0.000732422" width="161.165" height="312.932" filterUnits="userSpaceOnUse" color-interpolation-filters="sRGB">
<feFlood flood-opacity="0" result="BackgroundImageFix"/>
<feColorMatrix in="SourceAlpha" type="matrix" values="0 0 0 0 0 0 0 0 0 0 0 0 0 0 0 0 0 0 127 0" result="hardAlpha"/>
<feOffset dy="4"/>
<feGaussianBlur stdDeviation="3"/>
<feComposite in2="hardAlpha" operator="out"/>
<feColorMatrix type="matrix" values="0 0 0 0 0 0 0 0 0 0 0 0 0 0 0 0 0 0 0.25 0"/>
<feBlend mode="normal" in2="BackgroundImageFix" result="effect1_dropShadow"/>
<feBlend mode="normal" in="SourceGraphic" in2="effect1_dropShadow" result="shape"/>
</filter>
<linearGradient id="paint0_linear" x1="43.5324" y1="71.4001" x2="43.5324" y2="139.321" gradientUnits="userSpaceOnUse">
<stop stop-color="#29A0B7"/>
<stop offset="1" stop-color="#74B6D3"/>
</linearGradient>
</defs>
</svg>
