<svg width="16" height="16" viewBox="0 0 16 16" fill="none" xmlns="http://www.w3.org/2000/svg">
<path fill-rule="evenodd" clip-rule="evenodd" d="M1.33337 8C1.33337 4.32666 4.32671 1.33333 8.00004 1.33333C11.6734 1.33333 14.6667 4.32666 14.6667 8C14.6667 11.6733 11.6734 14.6667 8.00004 14.6667C4.32671 14.6667 1.33337 11.6733 1.33337 8ZM2.66671 7.99999C2.66671 10.94 5.06004 13.3333 8.00004 13.3333C10.94 13.3333 13.3334 10.94 13.3334 7.99999C13.3334 5.05999 10.94 2.66666 8.00004 2.66666C5.06004 2.66666 2.66671 5.05999 2.66671 7.99999Z" fill="#1ABF8E"/>
<path d="M10.795 5.20136C11.0706 4.93288 11.5176 4.93288 11.7933 5.20136C12.0689 5.46985 12.0689 5.90515 11.7933 6.17364L7.55796 10.2986C7.28229 10.5671 6.83535 10.5671 6.55969 10.2986L4.20675 8.00697C3.93108 7.73848 3.93108 7.30318 4.20675 7.0347C4.48241 6.76621 4.92935 6.76621 5.20502 7.0347L7.05882 8.84023L10.795 5.20136Z" fill="#1ABF8E"/>
</svg>
