<svg width="60" height="16" viewBox="0 0 60 16" fill="none" xmlns="http://www.w3.org/2000/svg">
<path d="M23.5048 5.02C24.2381 5.02 24.8814 5.16333 25.4348 5.45C25.9948 5.73667 26.4248 6.14667 26.7248 6.68C27.0314 7.20667 27.1848 7.82 27.1848 8.52C27.1848 9.22 27.0314 9.83333 26.7248 10.36C26.4248 10.88 25.9948 11.2833 25.4348 11.57C24.8814 11.8567 24.2381 12 23.5048 12H21.0548V9.13H20.3548V7.91H21.0548V5.02H23.5048ZM23.4548 10.86C24.1814 10.86 24.7448 10.6533 25.1448 10.24C25.5448 9.82667 25.7448 9.25333 25.7448 8.52C25.7448 7.78667 25.5448 7.21667 25.1448 6.81C24.7448 6.39667 24.1814 6.19 23.4548 6.19H22.4648V7.91H24.1348V9.13H22.4648V10.86H23.4548ZM27.5706 9.21C27.5706 8.65 27.6806 8.15333 27.9006 7.72C28.1273 7.28667 28.4306 6.95333 28.8106 6.72C29.1973 6.48667 29.6273 6.37 30.1006 6.37C30.514 6.37 30.874 6.45333 31.1806 6.62C31.494 6.78667 31.744 6.99667 31.9306 7.25V6.46H33.3406V12H31.9306V11.19C31.7506 11.45 31.5006 11.6667 31.1806 11.84C30.8673 12.0067 30.504 12.09 30.0906 12.09C29.624 12.09 29.1973 11.97 28.8106 11.73C28.4306 11.49 28.1273 11.1533 27.9006 10.72C27.6806 10.28 27.5706 9.77667 27.5706 9.21ZM31.9306 9.23C31.9306 8.89 31.864 8.6 31.7306 8.36C31.5973 8.11333 31.4173 7.92667 31.1906 7.8C30.964 7.66667 30.7206 7.6 30.4606 7.6C30.2006 7.6 29.9606 7.66333 29.7406 7.79C29.5206 7.91667 29.3406 8.10333 29.2006 8.35C29.0673 8.59 29.0006 8.87667 29.0006 9.21C29.0006 9.54333 29.0673 9.83667 29.2006 10.09C29.3406 10.3367 29.5206 10.5267 29.7406 10.66C29.9673 10.7933 30.2073 10.86 30.4606 10.86C30.7206 10.86 30.964 10.7967 31.1906 10.67C31.4173 10.5367 31.5973 10.35 31.7306 10.11C31.864 9.86333 31.9306 9.57 31.9306 9.23ZM28.8506 5.93C28.9106 5.49 29.0473 5.16333 29.2606 4.95C29.4806 4.73 29.7573 4.62 30.0906 4.62C30.2306 4.62 30.354 4.64333 30.4606 4.69C30.5673 4.73 30.6873 4.79 30.8206 4.87C31.0206 4.99667 31.1873 5.06 31.3206 5.06C31.5673 5.06 31.7106 4.91667 31.7506 4.63H32.5006C32.4406 5.07 32.3006 5.4 32.0806 5.62C31.8673 5.83333 31.594 5.94 31.2606 5.94C31.1206 5.94 30.9973 5.92 30.8906 5.88C30.784 5.83333 30.664 5.77 30.5306 5.69C30.3373 5.55667 30.1706 5.49 30.0306 5.49C29.784 5.49 29.6373 5.63667 29.5906 5.93H28.8506ZM39.7708 12L37.8908 9.64V12H36.4908V4.6H37.8908V8.81L39.7508 6.46H41.5708L39.1308 9.24L41.5908 12H39.7708ZM45.1506 6.38C45.5706 6.38 45.944 6.47333 46.2706 6.66C46.5973 6.84 46.8506 7.11 47.0306 7.47C47.2173 7.82333 47.3106 8.25 47.3106 8.75V12H45.9106V8.94C45.9106 8.5 45.8006 8.16333 45.5806 7.93C45.3606 7.69 45.0606 7.57 44.6806 7.57C44.294 7.57 43.9873 7.69 43.7606 7.93C43.5406 8.16333 43.4306 8.5 43.4306 8.94V12H42.0306V4.6H43.4306V7.15C43.6106 6.91 43.8506 6.72333 44.1506 6.59C44.4506 6.45 44.784 6.38 45.1506 6.38ZM52.002 4.74C52.002 5.24667 51.7386 5.56667 51.212 5.7L51.162 6.05H50.312L50.202 5.33C50.4486 5.29 50.6153 5.23 50.702 5.15C50.7886 5.06333 50.832 4.96 50.832 4.84C50.832 4.73333 50.7986 4.65333 50.732 4.6C50.6653 4.54667 50.5753 4.52 50.462 4.52C50.3353 4.52 50.2153 4.53 50.102 4.55C49.9953 4.57 49.8886 4.59667 49.782 4.63V3.81C49.8753 3.77667 50.002 3.75 50.162 3.73C50.322 3.71 50.482 3.7 50.642 3.7C51.0953 3.7 51.4353 3.79 51.662 3.97C51.8886 4.15 52.002 4.40667 52.002 4.74ZM53.392 9.26C53.392 10.1667 53.152 10.8667 52.672 11.36C52.1986 11.8533 51.552 12.1 50.732 12.1C50.2253 12.1 49.772 11.99 49.372 11.77C48.9786 11.55 48.6686 11.23 48.442 10.81C48.2153 10.3833 48.102 9.86667 48.102 9.26C48.102 8.35333 48.3386 7.65667 48.812 7.17C49.2853 6.68333 49.9353 6.44 50.762 6.44C51.2753 6.44 51.7286 6.55 52.122 6.77C52.5153 6.99 52.8253 7.31 53.052 7.73C53.2786 8.14333 53.392 8.65333 53.392 9.26ZM49.622 9.26C49.622 9.8 49.7086 10.21 49.882 10.49C50.062 10.7633 50.352 10.9 50.752 10.9C51.1453 10.9 51.4286 10.7633 51.602 10.49C51.782 10.21 51.872 9.8 51.872 9.26C51.872 8.72 51.782 8.31667 51.602 8.05C51.4286 7.77667 51.142 7.64 50.742 7.64C50.3486 7.64 50.062 7.77667 49.882 8.05C49.7086 8.31667 49.622 8.72 49.622 9.26ZM59.3834 9.11C59.3834 9.31 59.37 9.49 59.3434 9.65H55.2934C55.3267 10.05 55.4667 10.3633 55.7134 10.59C55.96 10.8167 56.2634 10.93 56.6234 10.93C57.1434 10.93 57.5134 10.7067 57.7334 10.26H59.2434C59.0834 10.7933 58.7767 11.2333 58.3234 11.58C57.87 11.92 57.3134 12.09 56.6534 12.09C56.12 12.09 55.64 11.9733 55.2134 11.74C54.7934 11.5 54.4634 11.1633 54.2234 10.73C53.99 10.2967 53.8734 9.79667 53.8734 9.23C53.8734 8.65667 53.99 8.15333 54.2234 7.72C54.4567 7.28667 54.7834 6.95333 55.2034 6.72C55.6234 6.48667 56.1067 6.37 56.6534 6.37C57.18 6.37 57.65 6.48333 58.0634 6.71C58.4834 6.93667 58.8067 7.26 59.0334 7.68C59.2667 8.09333 59.3834 8.57 59.3834 9.11ZM57.9334 8.71C57.9267 8.35 57.7967 8.06333 57.5434 7.85C57.29 7.63 56.98 7.52 56.6134 7.52C56.2667 7.52 55.9734 7.62667 55.7334 7.84C55.5 8.04667 55.3567 8.33667 55.3034 8.71H57.9334Z" fill="#1ABF8E"/>
<path fill-rule="evenodd" clip-rule="evenodd" d="M1.33337 8C1.33337 4.31999 4.31337 1.33333 7.99337 1.33333C11.68 1.33333 14.6667 4.31999 14.6667 8C14.6667 11.68 11.68 14.6667 7.99337 14.6667C4.31337 14.6667 1.33337 11.68 1.33337 8ZM5.66671 5.33333C5.11442 5.33333 4.66671 5.78104 4.66671 6.33333C4.66671 6.88561 5.11442 7.33333 5.66671 7.33333C6.21899 7.33333 6.66671 6.88561 6.66671 6.33333C6.66671 5.78104 6.21899 5.33333 5.66671 5.33333ZM10.3334 5.33333C9.78109 5.33333 9.33337 5.78104 9.33337 6.33333C9.33337 6.88561 9.78109 7.33333 10.3334 7.33333C10.8857 7.33333 11.3334 6.88561 11.3334 6.33333C11.3334 5.78104 10.8857 5.33333 10.3334 5.33333ZM8.00004 13.3333C5.05337 13.3333 2.66671 10.9467 2.66671 7.99999C2.66671 5.05333 5.05337 2.66666 8.00004 2.66666C10.9467 2.66666 13.3334 5.05333 13.3334 7.99999C13.3334 10.9467 10.9467 13.3333 8.00004 13.3333ZM10.2534 9.41999C10.3934 9.18666 10.7067 9.11333 10.94 9.25999C11.1734 9.40666 11.2467 9.71333 11.1 9.94666C10.42 11.02 9.2667 11.6667 8.00003 11.6667C6.73336 11.6667 5.58003 11.0267 4.90003 9.93999C4.75336 9.70666 4.8267 9.39999 5.06003 9.25333C5.29336 9.10666 5.60003 9.17999 5.7467 9.41333C6.24003 10.2 7.08003 10.6667 8.00003 10.6667C8.92003 10.6667 9.76003 10.2 10.2534 9.41999Z" fill="#1ABF8E"/>
</svg>
