<svg width="14" height="14" viewBox="0 0 14 14" fill="none" xmlns="http://www.w3.org/2000/svg">
    <path fill-rule="evenodd" clip-rule="evenodd" d="M0.333252 6.99998C0.333252 3.32665 3.32659 0.333313 6.99992 0.333313C10.6733 0.333313 13.6666 3.32665 13.6666 6.99998C13.6666 10.6733 10.6733 13.6666 6.99992 13.6666C3.32659 13.6666 0.333252 10.6733 0.333252 6.99998ZM1.66659 6.99998C1.66659 9.93998 4.05992 12.3333 6.99992 12.3333C9.93992 12.3333 12.3333 9.93998 12.3333 6.99998C12.3333 4.05998 9.93992 1.66665 6.99992 1.66665C4.05992 1.66665 1.66659 4.05998 1.66659 6.99998Z" fill="#1ABF8E"/>
    <path d="M9.79498 4.20136C10.0706 3.93288 10.5176 3.93288 10.7933 4.20136C11.0689 4.46985 11.0689 4.90515 10.7933 5.17364L6.55796 9.29864C6.28229 9.56712 5.83535 9.56712 5.55969 9.29864L3.20675 7.00697C2.93108 6.73848 2.93108 6.30318 3.20675 6.0347C3.48241 5.76621 3.92935 5.76621 4.20502 6.0347L6.05882 7.84023L9.79498 4.20136Z" fill="#1ABF8E"/>
</svg>
