<svg width="43" height="16" viewBox="0 0 43 16" fill="none" xmlns="http://www.w3.org/2000/svg">
<path d="M23.7184 5.02C24.4518 5.02 25.0951 5.16333 25.6484 5.45C26.2084 5.73667 26.6384 6.14667 26.9384 6.68C27.2451 7.20667 27.3984 7.82 27.3984 8.52C27.3984 9.22 27.2451 9.83333 26.9384 10.36C26.6384 10.88 26.2084 11.2833 25.6484 11.57C25.0951 11.8567 24.4518 12 23.7184 12H21.2684V9.13H20.5684V7.91H21.2684V5.02H23.7184ZM23.6684 10.86C24.3951 10.86 24.9584 10.6533 25.3584 10.24C25.7584 9.82667 25.9584 9.25333 25.9584 8.52C25.9584 7.78667 25.7584 7.21667 25.3584 6.81C24.9584 6.39667 24.3951 6.19 23.6684 6.19H22.6784V7.91H24.3484V9.13H22.6784V10.86H23.6684ZM33.1943 9.26C33.1943 10.1667 32.9543 10.8667 32.4743 11.36C32.001 11.8533 31.3543 12.1 30.5343 12.1C30.0276 12.1 29.5743 11.99 29.1743 11.77C28.781 11.55 28.471 11.23 28.2443 10.81C28.0176 10.3833 27.9043 9.86667 27.9043 9.26C27.9043 8.35333 28.141 7.65667 28.6143 7.17C29.0876 6.68333 29.7376 6.44 30.5643 6.44C30.931 6.44 31.2776 6.49667 31.6043 6.61C31.931 6.72333 32.2076 6.89 32.4343 7.11C32.701 7.03 32.8876 6.86667 32.9943 6.62C33.1076 6.36667 33.1643 6.06667 33.1643 5.72H34.6343L34.7043 5.83C34.6376 6.15 34.5443 6.45 34.4243 6.73C34.311 7.00333 34.1376 7.24 33.9043 7.44C33.671 7.64 33.351 7.79333 32.9443 7.9C33.0243 8.09333 33.0843 8.30333 33.1243 8.53C33.171 8.75667 33.1943 9 33.1943 9.26ZM29.4243 9.26C29.4243 9.8 29.511 10.21 29.6843 10.49C29.8643 10.7633 30.1543 10.9 30.5543 10.9C30.9476 10.9 31.231 10.7633 31.4043 10.49C31.5843 10.21 31.6743 9.8 31.6743 9.26C31.6743 8.72 31.5843 8.31667 31.4043 8.05C31.231 7.77667 30.9443 7.64 30.5443 7.64C30.151 7.64 29.8643 7.77667 29.6843 8.05C29.511 8.31667 29.4243 8.72 29.4243 9.26ZM28.5243 5.95C28.5643 5.43 28.7076 5.05 28.9543 4.81C29.2076 4.56333 29.5076 4.44 29.8543 4.44C30.0343 4.44 30.2076 4.48333 30.3743 4.57C30.5476 4.65667 30.7143 4.74333 30.8743 4.83C31.041 4.91 31.201 4.95 31.3543 4.95C31.4543 4.95 31.551 4.90667 31.6443 4.82C31.7376 4.73333 31.8043 4.60333 31.8443 4.43H32.5743C32.5343 4.94333 32.3876 5.32333 32.1343 5.57C31.881 5.81667 31.5843 5.94 31.2443 5.94C31.071 5.94 30.8976 5.9 30.7243 5.82C30.5576 5.73333 30.391 5.64667 30.2243 5.56C30.0643 5.47333 29.9043 5.43 29.7443 5.43C29.6443 5.43 29.5476 5.47333 29.4543 5.56C29.361 5.64667 29.2943 5.77667 29.2543 5.95H28.5243ZM38.1742 6.46V12H36.7742V6.46H38.1742ZM38.5642 5.02L36.2642 6.07V5.07L38.5642 3.88V5.02ZM40.9446 7.61V10.29C40.9446 10.4767 40.9879 10.6133 41.0746 10.7C41.1679 10.78 41.3213 10.82 41.5346 10.82H42.1846V12H41.3046C40.1246 12 39.5346 11.4267 39.5346 10.28V7.61H38.8746V6.46H39.5346V5.09H40.9446V6.46H42.1846V7.61H40.9446Z" fill="#FF8980"/>
<path fill-rule="evenodd" clip-rule="evenodd" d="M1.33337 8C1.33337 4.31999 4.31337 1.33333 7.99337 1.33333C11.68 1.33333 14.6667 4.31999 14.6667 8C14.6667 11.68 11.68 14.6667 7.99337 14.6667C4.31337 14.6667 1.33337 11.68 1.33337 8ZM5.66671 5.33333C5.11442 5.33333 4.66671 5.78104 4.66671 6.33333C4.66671 6.88561 5.11442 7.33333 5.66671 7.33333C6.21899 7.33333 6.66671 6.88561 6.66671 6.33333C6.66671 5.78104 6.21899 5.33333 5.66671 5.33333ZM10.3334 5.33333C9.78109 5.33333 9.33337 5.78104 9.33337 6.33333C9.33337 6.88561 9.78109 7.33333 10.3334 7.33333C10.8857 7.33333 11.3334 6.88561 11.3334 6.33333C11.3334 5.78104 10.8857 5.33333 10.3334 5.33333ZM8.00004 13.3333C5.05337 13.3333 2.66671 10.9467 2.66671 7.99999C2.66671 5.05333 5.05337 2.66666 8.00004 2.66666C10.9467 2.66666 13.3334 5.05333 13.3334 7.99999C13.3334 10.9467 10.9467 13.3333 8.00004 13.3333ZM4.90003 11.0533C5.58003 9.97999 6.73336 9.33333 8.00003 9.33333C9.2667 9.33333 10.42 9.97333 11.1067 11.0533C11.2534 11.2867 11.18 11.5933 10.9467 11.74C10.86 11.7867 10.7734 11.8133 10.68 11.8133C10.5134 11.8133 10.3467 11.7333 10.2534 11.58C9.76003 10.7933 8.92003 10.3267 8.00003 10.3267C7.08003 10.3267 6.24003 10.7933 5.7467 11.58C5.60003 11.8133 5.29336 11.8867 5.06003 11.74C4.8267 11.5933 4.75336 11.2867 4.90003 11.0533Z" fill="#FF8980"/>
</svg>
