<svg width="63" height="16" viewBox="0 0 63 16" fill="none" xmlns="http://www.w3.org/2000/svg">
<path d="M23.2944 5.02C24.0277 5.02 24.6711 5.16333 25.2244 5.45C25.7844 5.73667 26.2144 6.14667 26.5144 6.68C26.8211 7.20667 26.9744 7.82 26.9744 8.52C26.9744 9.22 26.8211 9.83333 26.5144 10.36C26.2144 10.88 25.7844 11.2833 25.2244 11.57C24.6711 11.8567 24.0277 12 23.2944 12H20.8444V9.13H20.1444V7.91H20.8444V5.02H23.2944ZM23.2444 10.86C23.9711 10.86 24.5344 10.6533 24.9344 10.24C25.3344 9.82667 25.5344 9.25333 25.5344 8.52C25.5344 7.78667 25.3344 7.21667 24.9344 6.81C24.5344 6.39667 23.9711 6.19 23.2444 6.19H22.2544V7.91H23.9244V9.13H22.2544V10.86H23.2444ZM32.7703 9.26C32.7703 10.1667 32.5303 10.8667 32.0503 11.36C31.5769 11.8533 30.9303 12.1 30.1103 12.1C29.6036 12.1 29.1503 11.99 28.7503 11.77C28.3569 11.55 28.0469 11.23 27.8203 10.81C27.5936 10.3833 27.4803 9.86667 27.4803 9.26C27.4803 8.35333 27.7169 7.65667 28.1903 7.17C28.6636 6.68333 29.3136 6.44 30.1403 6.44C30.5069 6.44 30.8536 6.49667 31.1803 6.61C31.5069 6.72333 31.7836 6.89 32.0103 7.11C32.2769 7.03 32.4636 6.86667 32.5703 6.62C32.6836 6.36667 32.7403 6.06667 32.7403 5.72H34.2103L34.2803 5.83C34.2136 6.15 34.1203 6.45 34.0003 6.73C33.8869 7.00333 33.7136 7.24 33.4803 7.44C33.2469 7.64 32.9269 7.79333 32.5203 7.9C32.6003 8.09333 32.6603 8.30333 32.7003 8.53C32.7469 8.75667 32.7703 9 32.7703 9.26ZM29.0003 9.26C29.0003 9.8 29.0869 10.21 29.2603 10.49C29.4403 10.7633 29.7303 10.9 30.1303 10.9C30.5236 10.9 30.8069 10.7633 30.9803 10.49C31.1603 10.21 31.2503 9.8 31.2503 9.26C31.2503 8.72 31.1603 8.31667 30.9803 8.05C30.8069 7.77667 30.5203 7.64 30.1203 7.64C29.7269 7.64 29.4403 7.77667 29.2603 8.05C29.0869 8.31667 29.0003 8.72 29.0003 9.26ZM28.1003 5.95C28.1403 5.43 28.2836 5.05 28.5303 4.81C28.7836 4.56333 29.0836 4.44 29.4303 4.44C29.6103 4.44 29.7836 4.48333 29.9503 4.57C30.1236 4.65667 30.2903 4.74333 30.4503 4.83C30.6169 4.91 30.7769 4.95 30.9303 4.95C31.0303 4.95 31.1269 4.90667 31.2203 4.82C31.3136 4.73333 31.3803 4.60333 31.4203 4.43H32.1503C32.1103 4.94333 31.9636 5.32333 31.7103 5.57C31.4569 5.81667 31.1603 5.94 30.8203 5.94C30.6469 5.94 30.4736 5.9 30.3003 5.82C30.1336 5.73333 29.9669 5.64667 29.8003 5.56C29.6403 5.47333 29.4803 5.43 29.3203 5.43C29.2203 5.43 29.1236 5.47333 29.0303 5.56C28.9369 5.64667 28.8703 5.77667 28.8303 5.95H28.1003ZM39.3602 6.38C40.0202 6.38 40.5535 6.59 40.9602 7.01C41.3669 7.42333 41.5702 8.00333 41.5702 8.75V12H40.1702V8.94C40.1702 8.5 40.0602 8.16333 39.8402 7.93C39.6202 7.69 39.3202 7.57 38.9402 7.57C38.5535 7.57 38.2469 7.69 38.0202 7.93C37.8002 8.16333 37.6902 8.5 37.6902 8.94V12H36.2902V6.46H37.6902V7.15C37.8769 6.91 38.1135 6.72333 38.4002 6.59C38.6935 6.45 39.0135 6.38 39.3602 6.38ZM45.7215 6.38C46.1415 6.38 46.5149 6.47333 46.8415 6.66C47.1682 6.84 47.4215 7.11 47.6015 7.47C47.7882 7.82333 47.8815 8.25 47.8815 8.75V12H46.4815V8.94C46.4815 8.5 46.3715 8.16333 46.1515 7.93C45.9315 7.69 45.6315 7.57 45.2515 7.57C44.8649 7.57 44.5582 7.69 44.3315 7.93C44.1115 8.16333 44.0015 8.5 44.0015 8.94V12H42.6015V4.6H44.0015V7.15C44.1815 6.91 44.4215 6.72333 44.7215 6.59C45.0215 6.45 45.3549 6.38 45.7215 6.38ZM49.6229 5.8C49.3762 5.8 49.1695 5.72333 49.0029 5.57C48.8429 5.41 48.7629 5.21333 48.7629 4.98C48.7629 4.74667 48.8429 4.55333 49.0029 4.4C49.1695 4.24 49.3762 4.16 49.6229 4.16C49.8695 4.16 50.0729 4.24 50.2329 4.4C50.3995 4.55333 50.4829 4.74667 50.4829 4.98C50.4829 5.21333 50.3995 5.41 50.2329 5.57C50.0729 5.72333 49.8695 5.8 49.6229 5.8ZM50.3129 6.46V12H48.9129V6.46H50.3129ZM51.6561 4.99C51.4694 4.85 51.2727 4.69667 51.0661 4.53C50.8661 4.35667 50.6927 4.17333 50.5461 3.98V3.88H51.7261C51.8327 4.09333 51.9394 4.27667 52.0461 4.43C52.1527 4.57667 52.2694 4.72 52.3961 4.86V4.99H51.6561ZM51.9661 5.81C52.1327 5.61667 52.3094 5.39667 52.4961 5.15C52.6894 4.90333 52.8627 4.66667 53.0161 4.44H54.5561C54.7094 4.66667 54.8794 4.90333 55.0661 5.15C55.2594 5.39667 55.4394 5.61667 55.6061 5.81V5.94H54.8161C54.6494 5.82667 54.4794 5.70333 54.3061 5.57C54.1327 5.43 53.9594 5.28333 53.7861 5.13C53.6194 5.28333 53.4461 5.43 53.2661 5.57C53.0927 5.70333 52.9227 5.82667 52.7561 5.94H51.9661V5.81ZM53.7361 6.44C54.4894 6.44 55.0861 6.65667 55.5261 7.09C55.9661 7.51667 56.1861 8.12667 56.1861 8.92V9.64H52.6661C52.6794 10.06 52.8027 10.39 53.0361 10.63C53.2761 10.87 53.6061 10.99 54.0261 10.99C54.3794 10.99 54.6994 10.9567 54.9861 10.89C55.2727 10.8167 55.5694 10.7067 55.8761 10.56V11.71C55.6094 11.8433 55.3261 11.94 55.0261 12C54.7327 12.0667 54.3761 12.1 53.9561 12.1C53.4094 12.1 52.9261 12 52.5061 11.8C52.0861 11.5933 51.7561 11.2833 51.5161 10.87C51.2761 10.4567 51.1561 9.93667 51.1561 9.31C51.1561 8.67 51.2627 8.14 51.4761 7.72C51.6961 7.29333 51.9994 6.97333 52.3861 6.76C52.7727 6.54667 53.2227 6.44 53.7361 6.44ZM53.7461 7.5C53.4594 7.5 53.2194 7.59333 53.0261 7.78C52.8394 7.96667 52.7294 8.25667 52.6961 8.65H54.7861C54.7794 8.31667 54.6927 8.04333 54.5261 7.83C54.3594 7.61 54.0994 7.5 53.7461 7.5ZM62.2343 6.46V12H60.8243V11.3C60.6443 11.54 60.4076 11.73 60.1143 11.87C59.8276 12.0033 59.5143 12.07 59.1743 12.07C58.7409 12.07 58.3576 11.98 58.0243 11.8C57.6909 11.6133 57.4276 11.3433 57.2343 10.99C57.0476 10.63 56.9543 10.2033 56.9543 9.71V6.46H58.3543V9.51C58.3543 9.95 58.4643 10.29 58.6843 10.53C58.9043 10.7633 59.2043 10.88 59.5843 10.88C59.9709 10.88 60.2743 10.7633 60.4943 10.53C60.7143 10.29 60.8243 9.95 60.8243 9.51V6.46H62.2343Z" fill="#1AADBB"/>
<path fill-rule="evenodd" clip-rule="evenodd" d="M7.99337 1.33334C4.31337 1.33334 1.33337 4.32 1.33337 8C1.33337 11.68 4.31337 14.6667 7.99337 14.6667C11.68 14.6667 14.6667 11.68 14.6667 8C14.6667 4.32 11.68 1.33334 7.99337 1.33334ZM4.66671 6.33334C4.66671 5.78105 5.11442 5.33334 5.66671 5.33334C6.21899 5.33334 6.66671 5.78105 6.66671 6.33334C6.66671 6.88562 6.21899 7.33334 5.66671 7.33334C5.11442 7.33334 4.66671 6.88562 4.66671 6.33334ZM10.3334 5.33334C9.78109 5.33334 9.33337 5.78105 9.33337 6.33334C9.33337 6.88562 9.78109 7.33334 10.3334 7.33334C10.8857 7.33334 11.3334 6.88562 11.3334 6.33334C11.3334 5.78105 10.8857 5.33334 10.3334 5.33334ZM6.00004 9.83334C6.00004 10.1067 6.22671 10.3333 6.50004 10.3333H9.50004C9.77337 10.3333 10 10.1067 10 9.83334C10 9.56 9.77337 9.33334 9.50004 9.33334H6.50004C6.22671 9.33334 6.00004 9.56 6.00004 9.83334ZM2.66671 8C2.66671 10.9467 5.05337 13.3333 8.00004 13.3333C10.9467 13.3333 13.3334 10.9467 13.3334 8C13.3334 5.05334 10.9467 2.66667 8.00004 2.66667C5.05337 2.66667 2.66671 5.05334 2.66671 8Z" fill="#1AADBB"/>
</svg>
