<svg width="18" height="18" viewBox="0 0 18 18" fill="none" xmlns="http://www.w3.org/2000/svg">
<path d="M11.5753 4.11819C11.3762 4.31729 11.0567 4.31252 10.8624 4.11819C10.6633 3.9191 10.6633 3.60436 10.8624 3.40526C11.4704 2.79723 12.1738 2.56833 12.839 2.61602C13.4995 2.65894 14.123 2.96772 14.5797 3.42433C14.7788 3.62343 14.774 3.94294 14.5797 4.13727C14.3806 4.33636 14.0658 4.33637 13.8667 4.13727C13.5722 3.8428 13.1824 3.6437 12.7782 3.61866C12.3777 3.59005 11.9604 3.73311 11.5753 4.11819ZM10.364 1.65987C11.5193 0.695383 12.8116 0.50463 13.9716 0.81818L14.0098 0.827718L14.0193 0.827716C14.6273 0.999393 15.1936 1.30817 15.6789 1.70756L15.6979 1.72664L15.7218 1.74094L15.7409 1.76002L15.7599 1.77909L15.7838 1.7934L15.8029 1.81248L15.8267 1.83632L15.8458 1.8554L15.8601 1.8697L15.8696 1.8697L15.8887 1.88878L15.9078 1.90785L15.9268 1.92693L15.9364 1.93647L15.9459 1.946L15.965 1.96508L15.9698 1.96985L16.0031 2.00323C16.027 2.02707 16.0461 2.04615 16.0699 2.06999L16.0747 2.07476L16.0842 2.0843C16.1033 2.10337 16.1224 2.12245 16.1414 2.14152L16.151 2.1606L16.1939 2.20352C17.4481 3.61032 17.8713 5.74555 16.418 7.56127L16.4133 7.56604L16.3703 7.6185L16.3417 7.65665L16.3036 7.6948C16.2845 7.72341 16.2607 7.74725 16.2368 7.7711L16.213 7.79494C16.1939 7.82356 16.1748 7.84263 16.151 7.86648L16.1367 7.88078C16.1081 7.90939 16.0794 7.93801 16.0508 7.96662L16.0365 7.98093L12.0105 12.007L7.97963 16.0378L7.9701 16.0474C6.55376 17.4637 4.85606 17.5925 3.45404 16.9892C2.91158 16.7615 2.41801 16.4181 2.00432 16.0044C1.59063 15.5907 1.25323 15.1008 1.02433 14.5595C1.01479 14.55 1.01479 14.5404 1.01002 14.5261C0.425845 13.1336 0.55937 11.4502 1.9614 10.0387L1.97094 10.0291L6.00177 5.9983L10.0278 1.97223L10.0374 1.96269L10.0421 1.95792C10.0612 1.93885 10.0851 1.915 10.1041 1.89593L10.1089 1.89116C10.128 1.87209 10.1566 1.85301 10.1757 1.83394C10.1947 1.81486 10.2138 1.79579 10.2329 1.77671L10.2615 1.75764L10.2901 1.72902L10.3187 1.70041L10.364 1.65987ZM13.7427 1.79817C12.8164 1.54661 11.7661 1.72187 10.8481 2.58264L10.7956 2.62556L10.7861 2.6351L10.7384 2.68278L7.06879 6.35238L11.6516 10.9352L15.3212 7.2656C15.3451 7.24176 15.3689 7.21792 15.388 7.19884L15.3975 7.1893C15.4214 7.16546 15.4404 7.14638 15.4595 7.12731L15.4643 7.12254C16.8043 5.63944 16.4002 3.82849 15.2878 2.71616L15.2735 2.70186L15.264 2.69232L15.2592 2.68755L15.2354 2.66371L15.2258 2.65417L15.2115 2.63986L15.2068 2.63509L15.1972 2.62556L15.1829 2.61125L15.1781 2.60648L15.1591 2.59694L15.1495 2.58741L15.1448 2.58264L15.1305 2.56833L15.1209 2.55879L15.1161 2.55403C15.1018 2.53972 15.0828 2.52065 15.0637 2.51111C14.675 2.17729 14.228 1.9305 13.7427 1.79817ZM6.35585 7.06532L2.68626 10.7349L2.68149 10.7397C1.60255 11.8186 1.49286 13.0871 1.93517 14.1375L1.94471 14.1565C2.12473 14.575 2.38582 14.9601 2.71368 15.2879C3.04153 15.6158 3.43138 15.8816 3.84508 16.0569L3.84985 16.0617C4.90018 16.5135 6.17345 16.4086 7.26193 15.3201L7.2667 15.3154L10.9363 11.6458L6.35585 7.06532Z" fill="#1AADBB"/>
</svg>
