<svg width="12" height="18" viewBox="0 0 12 18" fill="none" xmlns="http://www.w3.org/2000/svg">
<path d="M8.93864 11.8302C8.93864 11.5899 9.11864 11.3999 9.34636 11.3999C9.56864 11.3999 9.75409 11.5899 9.75409 11.8302C9.75409 12.9154 9.33545 13.8954 8.66182 14.6078C7.98818 15.3188 7.05818 15.7549 6.03 15.7549C5.80773 15.7549 5.62227 15.5649 5.62227 15.3246C5.62227 15.09 5.80773 14.8942 6.03 14.8942C6.83455 14.8942 7.55727 14.5503 8.085 13.9991C8.61273 13.4435 8.93864 12.6736 8.93864 11.8302ZM12 11.6705C12 13.4148 11.3318 14.9993 10.2436 16.1463C9.15545 17.2934 7.65545 18 6.00273 18C4.34454 18 2.84318 17.2948 1.76182 16.1463C0.675 14.9993 0 13.4148 0 11.6705C0 9.27135 2.12591 5.90942 3.94227 3.03393C4.59409 1.99484 5.20909 1.02483 5.64954 0.216013C5.76409 0.00877099 6.00818 -0.0588706 6.20455 0.0548249C6.27 0.095122 6.31909 0.152689 6.35182 0.216013C6.80318 1.03635 7.41273 2.0006 8.06455 3.03393C9.87955 5.90798 12 9.27135 12 11.6705ZM9.66682 15.5376C10.6023 14.5445 11.1832 13.1787 11.1832 11.6705C11.1832 9.53041 9.13364 6.28217 7.38273 3.50455C6.88227 2.713 6.40364 1.95455 6.00136 1.26662C5.59364 1.9603 5.115 2.713 4.61454 3.50455C2.865 6.28649 0.815454 9.52897 0.815454 11.6705C0.815454 13.1802 1.39773 14.546 2.33727 15.5376C3.27273 16.5248 4.56682 17.1379 6.00136 17.1379C7.43182 17.1379 8.72591 16.5248 9.66682 15.5376Z" fill="#1AADBB"/>
</svg>
