<svg width="16" height="16" viewBox="0 0 16 16" fill="none" xmlns="http://www.w3.org/2000/svg">
<g clip-path="url(#clip0)">
<path d="M14.7561 1.23334C13.1106 -0.411194 10.4342 -0.411194 8.78875 1.23334L5.30981 4.71227L9.25962 8.66209C10.0726 7.98512 11.1032 7.56124 12.2412 7.56124C12.894 7.56124 13.5151 7.69684 14.0803 7.93896L14.7561 7.20071C16.401 5.55571 16.401 2.87881 14.7561 1.23334Z" fill="#9B9B9B"/>
<path d="M8.60228 9.33053L4.64696 5.37524L1.24203 8.78353C-0.402941 10.4285 -0.402941 13.1054 1.24203 14.7509C2.88743 16.3953 5.59515 16.4267 7.24062 14.7821L7.93087 14.0885C7.68875 13.5233 7.55315 12.9022 7.55315 12.2494C7.55318 11.1406 7.95631 10.1341 8.60228 9.33053Z" fill="#9B9B9B"/>
<path d="M8.49072 12.2494C8.49072 14.1602 9.92488 15.7196 11.7724 15.9527V8.54614C9.92488 8.77924 8.49072 10.3386 8.49072 12.2494Z" fill="#9B9B9B"/>
<path d="M12.71 8.54614V15.9527C14.5575 15.7196 15.9917 14.1602 15.9917 12.2494C15.9917 10.3386 14.5576 8.77924 12.71 8.54614Z" fill="#9B9B9B"/>
</g>
<defs>
<clipPath id="clip0">
<rect width="16" height="16" fill="white"/>
</clipPath>
</defs>
</svg>
