<svg width="30" height="30" viewBox="0 0 30 30" fill="none" xmlns="http://www.w3.org/2000/svg">
<g id="Google + (Google Plus)">
<g id="Google + (Google Plus)_2">
<rect id="Rectangle" width="30" height="30" rx="15" fill="#EA4335"/>
<g id="Group">
<path id="Vector" d="M22.1573 12.1074C22.7956 12.1074 23.4337 12.1074 24.0749 12.1074C24.0784 12.7489 24.0846 13.3937 24.0881 14.0349C24.7293 14.0413 25.3741 14.0446 26.0156 14.0478C26.0156 14.6893 26.0156 15.3274 26.0156 15.9689C25.3744 15.9721 24.7296 15.9753 24.0881 15.9785C24.0816 16.6233 24.0784 17.2646 24.0749 17.9093C23.4337 17.9061 22.7918 17.9093 22.1538 17.9093C22.1477 17.2646 22.1477 16.6233 22.1409 15.9818C21.4997 15.975 20.8549 15.9721 20.2134 15.9686C20.2134 15.3271 20.2134 14.689 20.2134 14.0475C20.8549 14.0443 21.4965 14.0411 22.1409 14.0346C22.1442 13.3937 22.1506 12.7489 22.1573 12.1074Z" fill="white"/>
<path id="Vector_2" d="M4.76977 15.0086C4.63755 11.5274 7.68681 8.31031 11.1715 8.26857C12.9476 8.11708 14.6756 8.80679 16.0197 9.93169C15.4683 10.5379 14.9073 11.1372 14.3081 11.6981C13.1248 10.9792 11.7001 10.4314 10.3172 10.918C8.08668 11.5531 6.73587 14.1867 7.5613 16.3688C8.24488 18.6478 11.0169 19.8985 13.1893 18.9411C14.3142 18.5383 15.0559 17.5004 15.3813 16.3851C14.0921 16.3594 12.8026 16.3755 11.5133 16.3399C11.5101 15.5728 11.5069 14.8087 11.5101 14.0416C13.6601 14.0384 15.8133 14.032 17.9665 14.0513C18.0987 15.9307 17.8214 17.942 16.5996 19.4504C14.9266 21.6036 11.8356 22.2356 9.32104 21.3909C6.65239 20.5143 4.71169 17.8258 4.76977 15.0086Z" fill="white"/>
</g>
</g>
</g>
</svg>
