<svg width="56" height="16" viewBox="0 0 56 16" fill="none" xmlns="http://www.w3.org/2000/svg">
<path d="M28.7261 12L26.1861 8.89V12H24.7861V5.02H26.1861V8.15L28.7261 5.02H30.4161L27.5361 8.48L30.4961 12H28.7261ZM34.237 6.38C34.657 6.38 35.0303 6.47333 35.357 6.66C35.6836 6.84 35.937 7.11 36.117 7.47C36.3036 7.82333 36.397 8.25 36.397 8.75V12H34.997V8.94C34.997 8.5 34.887 8.16333 34.667 7.93C34.447 7.69 34.147 7.57 33.767 7.57C33.3803 7.57 33.0736 7.69 32.847 7.93C32.627 8.16333 32.517 8.5 32.517 8.94V12H31.117V4.6H32.517V7.15C32.697 6.91 32.937 6.72333 33.237 6.59C33.537 6.45 33.8703 6.38 34.237 6.38ZM39.8883 12.09C39.3549 12.09 38.8749 11.9733 38.4483 11.74C38.0216 11.5 37.6849 11.1633 37.4383 10.73C37.1983 10.2967 37.0783 9.79667 37.0783 9.23C37.0783 8.66333 37.2016 8.16333 37.4483 7.73C37.7016 7.29667 38.0449 6.96333 38.4783 6.73C38.9116 6.49 39.3949 6.37 39.9283 6.37C40.4616 6.37 40.9449 6.49 41.3783 6.73C41.8116 6.96333 42.1516 7.29667 42.3983 7.73C42.6516 8.16333 42.7783 8.66333 42.7783 9.23C42.7783 9.79667 42.6483 10.2967 42.3883 10.73C42.1349 11.1633 41.7883 11.5 41.3483 11.74C40.9149 11.9733 40.4283 12.09 39.8883 12.09ZM39.8883 10.87C40.1416 10.87 40.3783 10.81 40.5983 10.69C40.8249 10.5633 41.0049 10.3767 41.1383 10.13C41.2716 9.88333 41.3383 9.58333 41.3383 9.23C41.3383 8.70333 41.1983 8.3 40.9183 8.02C40.6449 7.73333 40.3083 7.59 39.9083 7.59C39.5083 7.59 39.1716 7.73333 38.8983 8.02C38.6316 8.3 38.4983 8.70333 38.4983 9.23C38.4983 9.75667 38.6283 10.1633 38.8883 10.45C39.1549 10.73 39.4883 10.87 39.8883 10.87ZM39.9883 5.16L38.4983 6V4.98L39.9883 4.17L41.4683 4.98V6L39.9883 5.16ZM46.5752 6.38C47.2352 6.38 47.7686 6.59 48.1752 7.01C48.5819 7.42333 48.7852 8.00333 48.7852 8.75V12H47.3852V8.94C47.3852 8.5 47.2752 8.16333 47.0552 7.93C46.8352 7.69 46.5352 7.57 46.1552 7.57C45.7686 7.57 45.4619 7.69 45.2352 7.93C45.0152 8.16333 44.9052 8.5 44.9052 8.94V12H43.5052V6.46H44.9052V7.15C45.0919 6.91 45.3286 6.72333 45.6152 6.59C45.9086 6.45 46.2286 6.38 46.5752 6.38ZM51.9866 6.37C52.3999 6.37 52.7632 6.45333 53.0766 6.62C53.3899 6.78 53.6366 6.99 53.8166 7.25V6.46H55.2266V12.04C55.2266 12.5533 55.1232 13.01 54.9166 13.41C54.7099 13.8167 54.3999 14.1367 53.9866 14.37C53.5732 14.61 53.0732 14.73 52.4866 14.73C51.6999 14.73 51.0532 14.5467 50.5466 14.18C50.0466 13.8133 49.7632 13.3133 49.6966 12.68H51.0866C51.1599 12.9333 51.3166 13.1333 51.5566 13.28C51.8032 13.4333 52.0999 13.51 52.4466 13.51C52.8532 13.51 53.1832 13.3867 53.4366 13.14C53.6899 12.9 53.8166 12.5333 53.8166 12.04V11.18C53.6366 11.44 53.3866 11.6567 53.0666 11.83C52.7532 12.0033 52.3932 12.09 51.9866 12.09C51.5199 12.09 51.0932 11.97 50.7066 11.73C50.3199 11.49 50.0132 11.1533 49.7866 10.72C49.5666 10.28 49.4566 9.77667 49.4566 9.21C49.4566 8.65 49.5666 8.15333 49.7866 7.72C50.0132 7.28667 50.3166 6.95333 50.6966 6.72C51.0832 6.48667 51.5132 6.37 51.9866 6.37ZM53.8166 9.23C53.8166 8.89 53.7499 8.6 53.6166 8.36C53.4832 8.11333 53.3032 7.92667 53.0766 7.8C52.8499 7.66667 52.6066 7.6 52.3466 7.6C52.0866 7.6 51.8466 7.66333 51.6266 7.79C51.4066 7.91667 51.2266 8.10333 51.0866 8.35C50.9532 8.59 50.8866 8.87667 50.8866 9.21C50.8866 9.54333 50.9532 9.83667 51.0866 10.09C51.2266 10.3367 51.4066 10.5267 51.6266 10.66C51.8532 10.7933 52.0932 10.86 52.3466 10.86C52.6066 10.86 52.8499 10.7967 53.0766 10.67C53.3032 10.5367 53.4832 10.35 53.6166 10.11C53.7499 9.86333 53.8166 9.57 53.8166 9.23Z" fill="#FF8980"/>
<path fill-rule="evenodd" clip-rule="evenodd" d="M1.33337 8C1.33337 4.31999 4.31337 1.33333 7.99337 1.33333C11.68 1.33333 14.6667 4.31999 14.6667 8C14.6667 11.68 11.68 14.6667 7.99337 14.6667C4.31337 14.6667 1.33337 11.68 1.33337 8ZM2.66671 7.99999C2.66671 10.9467 5.05337 13.3333 8.00004 13.3333C10.9467 13.3333 13.3334 10.9467 13.3334 7.99999C13.3334 5.05333 10.9467 2.66666 8.00004 2.66666C5.05337 2.66666 2.66671 5.05333 2.66671 7.99999Z" fill="#FF8980"/>
<path d="M10.8089 10.8089C10.5542 11.0637 10.1426 11.0637 9.88786 10.8089L8 8.92107L6.11213 10.8089C5.85737 11.0637 5.44583 11.0637 5.19106 10.8089C5.06874 10.6869 5 10.5212 5 10.3484C5 10.1756 5.06874 10.0099 5.19106 9.88786L7.07893 8L5.19106 6.11214C5.06874 5.99009 5 5.8244 5 5.65161C5 5.47881 5.06874 5.31312 5.19106 5.19107C5.44583 4.93631 5.85737 4.93631 6.11213 5.19107L8 7.07893L9.88786 5.19107C10.1426 4.93631 10.5542 4.93631 10.8089 5.19107C11.0637 5.44584 11.0637 5.85738 10.8089 6.11214L8.92106 8L10.8089 9.88786C11.0572 10.1361 11.0572 10.5542 10.8089 10.8089Z" fill="#FF8980"/>
</svg>
