<svg width="38" height="16" viewBox="0 0 38 16" fill="none" xmlns="http://www.w3.org/2000/svg">
<path d="M24.4736 8.5C24.4736 7.81333 24.627 7.2 24.9336 6.66C25.247 6.11333 25.6703 5.69 26.2036 5.39C26.7436 5.08333 27.347 4.93 28.0136 4.93C28.7936 4.93 29.477 5.13 30.0636 5.53C30.6503 5.93 31.0603 6.48333 31.2936 7.19H29.6836C29.5236 6.85667 29.297 6.60667 29.0036 6.44C28.717 6.27333 28.3836 6.19 28.0036 6.19C27.597 6.19 27.2336 6.28667 26.9136 6.48C26.6003 6.66667 26.3536 6.93333 26.1736 7.28C26.0003 7.62667 25.9136 8.03333 25.9136 8.5C25.9136 8.96 26.0003 9.36667 26.1736 9.72C26.3536 10.0667 26.6003 10.3367 26.9136 10.53C27.2336 10.7167 27.597 10.81 28.0036 10.81C28.3836 10.81 28.717 10.7267 29.0036 10.56C29.297 10.3867 29.5236 10.1333 29.6836 9.8H31.2936C31.0603 10.5133 30.6503 11.07 30.0636 11.47C29.4836 11.8633 28.8003 12.06 28.0136 12.06C27.347 12.06 26.7436 11.91 26.2036 11.61C25.6703 11.3033 25.247 10.88 24.9336 10.34C24.627 9.8 24.4736 9.18667 24.4736 8.5ZM34.6494 12.09C34.1161 12.09 33.6361 11.9733 33.2094 11.74C32.7827 11.5 32.4461 11.1633 32.1994 10.73C31.9594 10.2967 31.8394 9.79667 31.8394 9.23C31.8394 8.66333 31.9627 8.16333 32.2094 7.73C32.4627 7.29667 32.8061 6.96333 33.2394 6.73C33.6727 6.49 34.1561 6.37 34.6894 6.37C35.2227 6.37 35.7061 6.49 36.1394 6.73C36.5727 6.96333 36.9127 7.29667 37.1594 7.73C37.4127 8.16333 37.5394 8.66333 37.5394 9.23C37.5394 9.79667 37.4094 10.2967 37.1494 10.73C36.8961 11.1633 36.5494 11.5 36.1094 11.74C35.6761 11.9733 35.1894 12.09 34.6494 12.09ZM34.6494 10.87C34.9027 10.87 35.1394 10.81 35.3594 10.69C35.5861 10.5633 35.7661 10.3767 35.8994 10.13C36.0327 9.88333 36.0994 9.58333 36.0994 9.23C36.0994 8.70333 35.9594 8.3 35.6794 8.02C35.4061 7.73333 35.0694 7.59 34.6694 7.59C34.2694 7.59 33.9327 7.73333 33.6594 8.02C33.3927 8.3 33.2594 8.70333 33.2594 9.23C33.2594 9.75667 33.3894 10.1633 33.6494 10.45C33.9161 10.73 34.2494 10.87 34.6494 10.87ZM35.8394 4.95L33.5394 6V5L35.8394 3.81V4.95Z" fill="#1ABF8E"/>
<path fill-rule="evenodd" clip-rule="evenodd" d="M1.33337 8C1.33337 4.32666 4.32671 1.33333 8.00004 1.33333C11.6734 1.33333 14.6667 4.32666 14.6667 8C14.6667 11.6733 11.6734 14.6667 8.00004 14.6667C4.32671 14.6667 1.33337 11.6733 1.33337 8ZM2.66671 7.99999C2.66671 10.94 5.06004 13.3333 8.00004 13.3333C10.94 13.3333 13.3334 10.94 13.3334 7.99999C13.3334 5.05999 10.94 2.66666 8.00004 2.66666C5.06004 2.66666 2.66671 5.05999 2.66671 7.99999Z" fill="#1ABF8E"/>
<path d="M10.795 5.20136C11.0706 4.93288 11.5176 4.93288 11.7933 5.20136C12.0689 5.46985 12.0689 5.90515 11.7933 6.17364L7.55796 10.2986C7.28229 10.5671 6.83535 10.5671 6.55969 10.2986L4.20675 8.00697C3.93108 7.73848 3.93108 7.30318 4.20675 7.0347C4.48241 6.76621 4.92935 6.76621 5.20502 7.0347L7.05882 8.84023L10.795 5.20136Z" fill="#1ABF8E"/>
</svg>
