<svg width="68" height="16" viewBox="0 0 68 16" fill="none" xmlns="http://www.w3.org/2000/svg">
<path d="M24.6732 12L22.1332 8.89V12H20.7332V5.02H22.1332V8.15L24.6732 5.02H26.3632L23.4832 8.48L26.4432 12H24.6732ZM30.184 6.38C30.604 6.38 30.9774 6.47333 31.304 6.66C31.6307 6.84 31.884 7.11 32.064 7.47C32.2507 7.82333 32.344 8.25 32.344 8.75V12H30.944V8.94C30.944 8.5 30.834 8.16333 30.614 7.93C30.394 7.69 30.094 7.57 29.714 7.57C29.3274 7.57 29.0207 7.69 28.794 7.93C28.574 8.16333 28.464 8.5 28.464 8.94V12H27.064V4.6H28.464V7.15C28.644 6.91 28.884 6.72333 29.184 6.59C29.484 6.45 29.8174 6.38 30.184 6.38ZM35.8354 12.09C35.302 12.09 34.822 11.9733 34.3954 11.74C33.9687 11.5 33.632 11.1633 33.3854 10.73C33.1454 10.2967 33.0254 9.79667 33.0254 9.23C33.0254 8.66333 33.1487 8.16333 33.3954 7.73C33.6487 7.29667 33.992 6.96333 34.4254 6.73C34.8587 6.49 35.342 6.37 35.8754 6.37C36.4087 6.37 36.892 6.49 37.3254 6.73C37.7587 6.96333 38.0987 7.29667 38.3454 7.73C38.5987 8.16333 38.7254 8.66333 38.7254 9.23C38.7254 9.79667 38.5954 10.2967 38.3354 10.73C38.082 11.1633 37.7354 11.5 37.2954 11.74C36.862 11.9733 36.3754 12.09 35.8354 12.09ZM35.8354 10.87C36.0887 10.87 36.3254 10.81 36.5454 10.69C36.772 10.5633 36.952 10.3767 37.0854 10.13C37.2187 9.88333 37.2854 9.58333 37.2854 9.23C37.2854 8.70333 37.1454 8.3 36.8654 8.02C36.592 7.73333 36.2554 7.59 35.8554 7.59C35.4554 7.59 35.1187 7.73333 34.8454 8.02C34.5787 8.3 34.4454 8.70333 34.4454 9.23C34.4454 9.75667 34.5754 10.1633 34.8354 10.45C35.102 10.73 35.4354 10.87 35.8354 10.87ZM35.9354 5.16L34.4454 6V4.98L35.9354 4.17L37.4154 4.98V6L35.9354 5.16ZM42.5223 6.38C43.1823 6.38 43.7156 6.59 44.1223 7.01C44.529 7.42333 44.7323 8.00333 44.7323 8.75V12H43.3323V8.94C43.3323 8.5 43.2223 8.16333 43.0023 7.93C42.7823 7.69 42.4823 7.57 42.1023 7.57C41.7156 7.57 41.409 7.69 41.1823 7.93C40.9623 8.16333 40.8523 8.5 40.8523 8.94V12H39.4523V6.46H40.8523V7.15C41.039 6.91 41.2756 6.72333 41.5623 6.59C41.8556 6.45 42.1756 6.38 42.5223 6.38ZM47.9336 6.37C48.347 6.37 48.7103 6.45333 49.0236 6.62C49.337 6.78 49.5836 6.99 49.7636 7.25V6.46H51.1736V12.04C51.1736 12.5533 51.0703 13.01 50.8636 13.41C50.657 13.8167 50.347 14.1367 49.9336 14.37C49.5203 14.61 49.0203 14.73 48.4336 14.73C47.647 14.73 47.0003 14.5467 46.4936 14.18C45.9936 13.8133 45.7103 13.3133 45.6436 12.68H47.0336C47.107 12.9333 47.2636 13.1333 47.5036 13.28C47.7503 13.4333 48.047 13.51 48.3936 13.51C48.8003 13.51 49.1303 13.3867 49.3836 13.14C49.637 12.9 49.7636 12.5333 49.7636 12.04V11.18C49.5836 11.44 49.3336 11.6567 49.0136 11.83C48.7003 12.0033 48.3403 12.09 47.9336 12.09C47.467 12.09 47.0403 11.97 46.6536 11.73C46.267 11.49 45.9603 11.1533 45.7336 10.72C45.5136 10.28 45.4036 9.77667 45.4036 9.21C45.4036 8.65 45.5136 8.15333 45.7336 7.72C45.9603 7.28667 46.2636 6.95333 46.6436 6.72C47.0303 6.48667 47.4603 6.37 47.9336 6.37ZM49.7636 9.23C49.7636 8.89 49.697 8.6 49.5636 8.36C49.4303 8.11333 49.2503 7.92667 49.0236 7.8C48.797 7.66667 48.5536 7.6 48.2936 7.6C48.0336 7.6 47.7936 7.66333 47.5736 7.79C47.3536 7.91667 47.1736 8.10333 47.0336 8.35C46.9003 8.59 46.8336 8.87667 46.8336 9.21C46.8336 9.54333 46.9003 9.83667 47.0336 10.09C47.1736 10.3367 47.3536 10.5267 47.5736 10.66C47.8003 10.7933 48.0403 10.86 48.2936 10.86C48.5536 10.86 48.797 10.7967 49.0236 10.67C49.2503 10.5367 49.4303 10.35 49.5636 10.11C49.697 9.86333 49.7636 9.57 49.7636 9.23ZM60.3338 6.1H59.7338V12H58.3138V11.18C58.1405 11.4533 57.8971 11.6733 57.5838 11.84C57.2705 12.0067 56.9071 12.09 56.4938 12.09C56.0271 12.09 55.6005 11.97 55.2138 11.73C54.8271 11.49 54.5205 11.1533 54.2938 10.72C54.0738 10.28 53.9638 9.77667 53.9638 9.21C53.9638 8.65 54.0738 8.15333 54.2938 7.72C54.5205 7.28667 54.8271 6.95333 55.2138 6.72C55.6005 6.48667 56.0305 6.37 56.5038 6.37C56.8638 6.37 57.2071 6.45 57.5338 6.61C57.8605 6.76333 58.1205 6.97 58.3138 7.23V6.1H57.5538V5.36H58.3138V4.6H59.7338V5.36H60.3338V6.1ZM56.8538 10.86C57.1138 10.86 57.3571 10.7967 57.5838 10.67C57.8105 10.5367 57.9905 10.35 58.1238 10.11C58.2571 9.86333 58.3238 9.57 58.3238 9.23C58.3238 8.89 58.2571 8.6 58.1238 8.36C57.9905 8.11333 57.8105 7.92667 57.5838 7.8C57.3571 7.66667 57.1138 7.6 56.8538 7.6C56.5938 7.6 56.3538 7.66333 56.1338 7.79C55.9138 7.91667 55.7338 8.10333 55.5938 8.35C55.4605 8.59 55.3938 8.87667 55.3938 9.21C55.3938 9.54333 55.4605 9.83667 55.5938 10.09C55.7338 10.3367 55.9138 10.5267 56.1338 10.66C56.3605 10.7933 56.6005 10.86 56.8538 10.86ZM65.9097 9.26C65.9097 10.1667 65.6697 10.8667 65.1897 11.36C64.7164 11.8533 64.0697 12.1 63.2497 12.1C62.7431 12.1 62.2897 11.99 61.8897 11.77C61.4964 11.55 61.1864 11.23 60.9597 10.81C60.7331 10.3833 60.6197 9.86667 60.6197 9.26C60.6197 8.35333 60.8564 7.65667 61.3297 7.17C61.8031 6.68333 62.4531 6.44 63.2797 6.44C63.6464 6.44 63.9931 6.49667 64.3197 6.61C64.6464 6.72333 64.9231 6.89 65.1497 7.11C65.4164 7.03 65.6031 6.86667 65.7097 6.62C65.8231 6.36667 65.8797 6.06667 65.8797 5.72H67.3497L67.4197 5.83C67.3531 6.15 67.2597 6.45 67.1397 6.73C67.0264 7.00333 66.8531 7.24 66.6197 7.44C66.3864 7.64 66.0664 7.79333 65.6597 7.9C65.7397 8.09333 65.7997 8.30333 65.8397 8.53C65.8864 8.75667 65.9097 9 65.9097 9.26ZM62.1397 9.26C62.1397 9.8 62.2264 10.21 62.3997 10.49C62.5797 10.7633 62.8697 10.9 63.2697 10.9C63.6631 10.9 63.9464 10.7633 64.1197 10.49C64.2997 10.21 64.3897 9.8 64.3897 9.26C64.3897 8.72 64.2997 8.31667 64.1197 8.05C63.9464 7.77667 63.6597 7.64 63.2597 7.64C62.8664 7.64 62.5797 7.77667 62.3997 8.05C62.2264 8.31667 62.1397 8.72 62.1397 9.26ZM61.2397 5.95C61.2797 5.43 61.4231 5.05 61.6697 4.81C61.9231 4.56333 62.2231 4.44 62.5697 4.44C62.7497 4.44 62.9231 4.48333 63.0897 4.57C63.2631 4.65667 63.4297 4.74333 63.5897 4.83C63.7564 4.91 63.9164 4.95 64.0697 4.95C64.1697 4.95 64.2664 4.90667 64.3597 4.82C64.4531 4.73333 64.5197 4.60333 64.5597 4.43H65.2897C65.2497 4.94333 65.1031 5.32333 64.8497 5.57C64.5964 5.81667 64.2997 5.94 63.9597 5.94C63.7864 5.94 63.6131 5.9 63.4397 5.82C63.2731 5.73333 63.1064 5.64667 62.9397 5.56C62.7797 5.47333 62.6197 5.43 62.4597 5.43C62.3597 5.43 62.2631 5.47333 62.1697 5.56C62.0764 5.64667 62.0097 5.77667 61.9697 5.95H61.2397Z" fill="#FF8980"/>
<path fill-rule="evenodd" clip-rule="evenodd" d="M1.33337 8C1.33337 4.31334 4.31337 1.33334 7.99337 1.33334C11.68 1.33334 14.6667 4.31334 14.6667 8C14.6667 11.6867 11.6734 14.6667 7.99337 14.6667C4.31337 14.6667 1.33337 11.6867 1.33337 8ZM5.5667 7.64667L5.92004 7.29334L6.27337 7.64667C6.4667 7.84 6.7867 7.84 6.98004 7.64667C7.17337 7.45334 7.17337 7.13334 6.98004 6.94L6.6267 6.58667L6.98004 6.23334C7.17337 6.04 7.17337 5.72 6.98004 5.52667C6.7867 5.33334 6.4667 5.33334 6.27337 5.52667L5.92004 5.88L5.5667 5.52667C5.37337 5.33334 5.05337 5.33334 4.86004 5.52667C4.6667 5.72 4.6667 6.04 4.86004 6.23334L5.21337 6.58667L4.86004 6.94C4.6667 7.13334 4.6667 7.45334 4.86004 7.64667C5.05337 7.84 5.37337 7.84 5.5667 7.64667ZM8.00004 9C6.6467 9 5.4667 9.74 4.83337 10.8333C4.7067 11.0533 4.87337 11.3333 5.1267 11.3333H10.8734C11.1267 11.3333 11.2934 11.0533 11.1667 10.8333C10.5334 9.74 9.35337 9 8.00004 9ZM8.00004 13.3333C5.05337 13.3333 2.66671 10.9467 2.66671 8C2.66671 5.05334 5.05337 2.66667 8.00004 2.66667C10.9467 2.66667 13.3334 5.05334 13.3334 8C13.3334 10.9467 10.9467 13.3333 8.00004 13.3333ZM10.08 5.88L10.4334 5.52667C10.6267 5.33334 10.9467 5.33334 11.14 5.52667C11.3334 5.72 11.3334 6.04 11.14 6.23334L10.7867 6.58667L11.14 6.94C11.3334 7.13334 11.3334 7.45334 11.14 7.64667C10.9467 7.84 10.6267 7.84 10.4334 7.64667L10.08 7.29334L9.72671 7.64667C9.53337 7.84 9.21337 7.84 9.02004 7.64667C8.82671 7.45334 8.82671 7.13334 9.02004 6.94L9.37337 6.58667L9.02004 6.23334C8.82671 6.04 8.82671 5.72 9.02004 5.52667C9.21337 5.33334 9.53337 5.33334 9.72671 5.52667L10.08 5.88Z" fill="#FF8980"/>
</svg>
