<svg width="30" height="30" viewBox="0 0 30 30" fill="none" xmlns="http://www.w3.org/2000/svg">
<g id="LinkedIn">
<g id="LinkedIn_2">
<rect id="Rectangle" width="30" height="30" rx="15" fill="#0077B5"/>
<g id="Group">
<path id="Path" d="M23.3281 22.0781C22.3438 22.0547 21.3828 22.0547 20.3984 22.0781C20.1875 22.0781 20.1406 22.0312 20.1406 21.8203C20.1406 20.0859 20.1406 18.3281 20.1406 16.5937C20.1406 16.1953 20.1172 15.7969 20 15.4219C19.6484 14.2031 18.2422 13.7578 17.2344 14.5781C16.6953 15 16.4844 15.5859 16.4844 16.289C16.4844 17.9297 16.4844 19.5703 16.4844 21.2109C16.4844 21.4219 16.4609 21.6328 16.4844 21.8672C16.5078 22.0547 16.4141 22.1015 16.25 22.0781C15.2422 22.0781 14.2578 22.0781 13.25 22.0781C13.0625 22.0781 13.0156 22.0312 13.0156 21.8437C13.0391 20.3672 13.0391 18.8906 13.0391 17.3906C13.0391 15.5625 13.0391 13.7344 13.0156 11.9297C13.0156 11.7187 13.0625 11.6719 13.25 11.6719C14.2578 11.6719 15.2422 11.6719 16.25 11.6719C16.4375 11.6719 16.4844 11.7187 16.4844 11.9062C16.4844 12.2812 16.4844 12.6562 16.4844 13.1015C16.5547 13.0312 16.5781 13.0078 16.6016 12.9844C17.5156 11.6484 18.8047 11.2734 20.3281 11.5078C22.0859 11.7891 23.2109 13.0078 23.4922 14.8828C23.5625 15.3281 23.5859 15.7734 23.5859 16.2187C23.5859 18.0937 23.5859 19.9453 23.5859 21.8203C23.5859 22.0078 23.5391 22.0781 23.3281 22.0781Z" fill="white"/>
<path id="Path_2" d="M11.1406 16.875C11.1406 18.5156 11.1406 20.1562 11.1406 21.7969C11.1406 22.0078 11.0938 22.0781 10.8828 22.0781C9.89844 22.0547 8.91406 22.0781 7.92969 22.0781C7.74219 22.0781 7.69531 22.0312 7.69531 21.8437C7.69531 18.5391 7.69531 15.2109 7.69531 11.9062C7.69531 11.7422 7.74219 11.6719 7.92969 11.6719C8.9375 11.6719 9.94531 11.6719 10.9531 11.6719C11.1641 11.6719 11.1875 11.7422 11.1875 11.9297C11.1406 13.5703 11.1406 15.2109 11.1406 16.875Z" fill="white"/>
<path id="Path_3" d="M11.3047 8.95314C11.0703 9.89064 10.1094 10.4297 9.00781 10.2422C7.83593 10.0547 7.17968 8.90626 7.60156 7.78126C7.88281 7.07814 8.5625 6.65626 9.42968 6.6797C10.7422 6.65626 11.6094 7.71095 11.3047 8.95314Z" fill="white"/>
</g>
</g>
</g>
</svg>
