<svg width="206" height="152" fill="none" xmlns="http://www.w3.org/2000/svg"><path opacity=".1" d="M14.589 59.275h17.786v24.244H15.89c-.042.251-.084.5-.131.75h16.617v19.55c-.028 0-.056-.021-.082-.032a36.391 36.391 0 01-1.402-.59c-.1-.046-.198-.093-.3-.137a35.157 35.157 0 01-1.402-.701 29.176 29.176 0 01-7.479-5.71c-.061-.058-.117-.121-.175-.175a30 30 0 01-.833-.94c-.101-.117-.2-.237-.3-.35-.318-.39-.627-.793-.925-1.197-.045-.062-.087-.121-.131-.176a25.885 25.885 0 01-3.015-5.45c-.024-.058-.047-.121-.07-.176a23.12 23.12 0 01-.65-1.87c-.08-.265-.16-.526-.226-.8-.025-.08-.044-.16-.065-.24-.985-3.881-1.1-7.916-1.1-11.931V71.94c.015-1.639.034-3.276.059-4.912a166.93 166.93 0 01.198-5.905c.031-.62.069-1.237.112-1.85zM32.375 32.28h-9.757a74.274 74.274 0 015.19-7.14 91.332 91.332 0 014.567-5.188V32.28zM32.375 33.027v25.498h-17.73c0-.074.01-.15.018-.223a67.675 67.675 0 01.112-1.304c.023-.231.045-.512.073-.766.028-.254.051-.512.08-.766.027-.254.055-.508.087-.76.031-.253.06-.509.095-.761.026-.209.052-.419.082-.63.04-.295.082-.592.126-.886 0-.046.014-.09.021-.133.32-2.156.756-4.292 1.304-6.401a47.402 47.402 0 012.2-6.485 48.712 48.712 0 013.309-6.383h10.223zM36.624 59.275V83.52h37.99V59.275h-37.99zm0 24.995v20.821c.217.044.43.088.646.125.29.056.58.107.877.151l.175.024c.116.019.233.035.35.049.293.042.586.074.877.102.137.014.279.024.417.037l.338.024c.184.014.367.025.549.032.112 0 .224.009.338.012.114.004.175 0 .267 0h.974c.15 0 .302 0 .45-.014h.01c.104 0 .208 0 .313-.012h.09c.087 0 .175 0 .259-.011a.592.592 0 01.06 0c.194-.012.39-.028.588-.045.198-.018.386-.039.584-.06l.398-.049a34.945 34.945 0 004.81-1.024c3.547-.988 7.012-2.371 10.556-3.382 4.578-1.306 9.64-1.95 14.063-.36V84.27h-37.99zm37.99-51.99V.003a48.817 48.817 0 00-12.342 1.446c-9.62 2.417-18.259 7.66-25.648 14.354v16.475h1.912v.749h-1.912v25.498h37.99V33.027H46.359v-.75l28.257.003zm48.809-10.903c-2.38-.084-4.746-.836-6.888-2.002-4.091-2.224-7.361-5.663-11.014-8.562-7.589-6.041-17-9.688-26.656-10.593v32.06h54.229l.135-.142-9.806-10.761zm4.941-.877l5.239 5.751v-7.263c-1.764.223-3.299.74-5.239 1.506v.006zm5.239 89.762V84.27h-11.172a5.604 5.604 0 00-.002 0H78.865v18.795c.414.307.822.631 1.227.957.437.358.87.719 1.302 1.085l.435.36c.208.175.42.35.63.517a96.232 96.232 0 001.92 1.505 88.004 88.004 0 0010.803 7.065 87.043 87.043 0 004.284 2.235 96.545 96.545 0 0028.218 8.679c1.961.289 3.93.516 5.908.684v-15.894h.175l-.164.004zM78.865 33.027v25.498h54.738V33.027H78.865zm0 26.244V83.52h54.738V59.275l-54.738-.004zm58.986-40.318v8.115l6.685-7.339a70.177 70.177 0 00-6.685-.776zm0 40.322V83.52h53.238V59.275h-53.238zm53.05 52.91l.188-27.915h-53.238v42.164c3.429.142 6.864.101 10.288-.125h.06a89.144 89.144 0 004.885-.448h.036a89.841 89.841 0 0025.104-6.706l12.677-6.97zm10.458-48.928a77.685 77.685 0 00-.622-1.402 63.54 63.54 0 00-1.244-2.578h-4.154V83.52h10.5c-.009-6.867-1.747-13.878-4.48-20.263zm-6.02 21.013v24.011c2.957-2.834 5.458-6.078 7.256-9.787 2.164-4.467 3.155-9.301 3.237-14.226l-10.493.002zm0-32.06v6.31h3.765a68.685 68.685 0 00-3.765-6.31zM159.234 23.71a75.7 75.7 0 00-9.826-3.018l-10.232 11.228-.2.215.132.142h36.417a77.802 77.802 0 00-16.291-8.567zm17.36 9.316h-37.996l-.747.682v24.816h53.238V46.5a75.793 75.793 0 00-14.495-13.474z" fill="#1AADBB"/><path opacity=".1" d="M32.375 45.89v12.635h-17.73c0-.074.01-.15.018-.223a67.675 67.675 0 01.112-1.304c.023-.231.045-.512.073-.766.028-.254.051-.512.08-.766.027-.254.055-.508.087-.76.031-.253.06-.509.095-.761.026-.209.052-.419.082-.63.04-.295.082-.592.126-.886 0-.046.014-.09.021-.133.32-2.156.756-4.292 1.304-6.401l15.732-.005zM14.589 59.275h17.786v24.244H15.89c-.042.251-.084.5-.131.75h16.617v19.55c-.028 0-.056-.021-.082-.032a36.391 36.391 0 01-1.402-.59c-.1-.046-.198-.093-.3-.137a35.157 35.157 0 01-1.402-.701 29.176 29.176 0 01-7.479-5.71c-.061-.058-.117-.121-.175-.175a30 30 0 01-.833-.94c-.101-.117-.2-.237-.3-.35-.318-.39-.627-.793-.925-1.197-.045-.062-.087-.121-.131-.176a25.885 25.885 0 01-3.015-5.45c-.024-.058-.047-.121-.07-.176a23.12 23.12 0 01-.65-1.87c-.08-.265-.16-.526-.226-.8-.025-.08-.044-.16-.065-.24-.985-3.881-1.1-7.916-1.1-11.931V71.94c.015-1.639.034-3.276.059-4.912a166.93 166.93 0 01.198-5.905c.031-.62.069-1.237.112-1.85zM49.996 36.68v21.845H36.622V36.679h1.907v-7.396h7.827v7.396h3.64zM49.995 59.273H36.622v24.245h13.373V59.273zM36.624 84.27h13.373v20.155a34.496 34.496 0 01-4.811 1.022 24.1 24.1 0 01-.983.111l-.588.047h-.06l-.259.014h-.09c-.104 0-.208.012-.313.014h-.009c-.15 0-.3.011-.45.014h-1.241c-.114 0-.226 0-.34-.014-.18-.007-.362-.018-.547-.032l-.338-.024c-.14-.011-.28-.025-.419-.039a15.775 15.775 0 01-.876-.1l-.35-.049-.176-.024a22.27 22.27 0 01-.877-.149 20.13 20.13 0 01-.646-.128V84.27zM133.601 34.1h-11.028v24.423h11.028V34.099zM133.602 59.273V83.52H78.865V73.061h29.155v6.17h14.553V59.273h11.029zM133.776 110.267c-.058 0-.116 0-.175-.01v15.905a90.167 90.167 0 01-5.907-.682 96.62 96.62 0 01-25.599-7.449 93.683 93.683 0 01-6.913-3.468 88.426 88.426 0 01-13.35-9.086c-.58-.48-1.155-.971-1.74-1.446a34.678 34.678 0 00-1.227-.96V84.27h43.564c-.031-.112-.059-.223-.091-.335.033.112.065.222.093.335h11.171v25.985c.058.002.116.007.174.012zM162.364 32.28h-7.186v-2.233h3.22v-6.651c.279.103.557.208.834.315v6.336h3.13l.002 2.233zM179.678 58.525h-35.281.011-6.557V34.1h1.854v18.053h8.473V41.462h7.002v-8.435h7.186v8.44h6.998V52.16h10.316l-.002 6.366zM137.851 59.275v24.244h41.829V59.275h-41.829zm53.178 52.782l.059-19.192H179.68v-8.588h-41.829v42.157a95.95 95.95 0 0010.288-.125h.06a89.018 89.018 0 004.884-.448h.037a89.841 89.841 0 0025.104-6.706" fill="#1AADBB"/><path opacity=".1" d="M133.602 40.89h-5.908v7.657h5.908v-7.658zM133.602 56.761h-5.908v1.764h5.908V56.76zM133.602 59.273h-5.908v5.144h5.908v-5.144zM133.602 72.634h-5.908v7.657h5.908v-7.657zM133.602 88.506h-5.908v7.657h5.908v-7.657zM133.602 110.255c.058 0 .116 0 .176.012-.058 0-.116 0-.176-.01v1.779h-5.908v-7.658h5.908v5.877zM133.602 120.249v5.913a90.118 90.118 0 01-5.908-.682v-5.231h5.908zM104.186 82.957H78.865v.563h25.321v-.563zM104.186 84.268H78.865v2.156h25.321v-2.156zM104.186 93.49H78.865v3.467h25.321v-3.466zM104.186 104.024v3.467H84.38a81.22 81.22 0 01-2.548-2.023c-.582-.478-1.157-.969-1.74-1.444h24.094zM104.186 114.556v3.475h-2.091a93.679 93.679 0 01-6.913-3.468l9.004-.007zM153.124 61.623h-4.985v4.985h4.985v-4.985zM45.198 38.399h-4.985v4.984h4.985V38.4zM45.198 49.977h-4.985v4.985h4.985v-4.985zM45.198 61.555h-4.985v4.985h4.985v-4.985zM45.198 73.131h-4.985v4.985h4.985v-4.985zM45.198 84.71h-4.985v4.984h4.985V84.71zM45.198 96.288h-4.985v4.984h4.985v-4.984zM172.153 61.623h-4.985v4.985h4.985v-4.985zM153.124 73.918h-4.985v4.985h4.985v-4.985zM172.153 73.918h-4.985v4.985h4.985v-4.985zM153.124 86.212h-4.985v4.984h4.985v-4.984zM172.153 86.212h-4.985v4.984h4.985v-4.984zM153.124 98.507h-4.985v4.984h4.985v-4.984zM172.153 98.507h-4.985v4.984h4.985v-4.984zM153.124 110.802h-4.985v4.984h4.985v-4.984zM172.153 110.802h-4.985v4.984h4.985v-4.984zM148.139 126.309v-3.214h4.983v2.757l-4.983.457zM15.318 52.29v2.852h17.057V52.29H15.318zm1.699 2.673h-1.403v-2.492h1.403v2.492zm1.698 0h-1.402v-2.492h1.402v2.492zm1.695 0h-1.402v-2.492h1.402v2.492zm1.698 0h-1.402v-2.492h1.402v2.492zm1.697 0h-1.402v-2.492h1.402v2.492zm1.698 0h-1.402v-2.492h1.402v2.492zm1.698 0H25.8v-2.492h1.402v2.492zm1.697 0h-1.402v-2.492h1.402v2.492zm1.697 0h-1.403v-2.492h1.402v2.492zm1.698 0H30.89v-2.492h1.402v2.492zM15.318 60.591v2.852h17.057V60.59H15.318zm1.699 2.673h-1.403v-2.492h1.403v2.492zm1.698 0h-1.402v-2.492h1.402v2.492zm1.695 0h-1.402v-2.492h1.402v2.492zm1.698 0h-1.402v-2.492h1.402v2.492zm1.697 0h-1.402v-2.492h1.402v2.492zm1.698 0h-1.402v-2.492h1.402v2.492zm1.698 0H25.8v-2.492h1.402v2.492zm1.697 0h-1.402v-2.492h1.402v2.492zm1.697 0h-1.403v-2.492h1.402v2.492zm1.698 0H30.89v-2.492h1.402v2.492zM15.318 68.894v2.85h17.057v-2.85H15.318zm1.699 2.669h-1.403V69.07h1.403v2.493zm1.698 0h-1.402V69.07h1.402v2.493zm1.695 0h-1.402V69.07h1.402v2.493zm1.698 0h-1.402V69.07h1.402v2.493zm1.697 0h-1.402V69.07h1.402v2.493zm1.698 0h-1.402V69.07h1.402v2.493zm1.698 0H25.8V69.07h1.402v2.493zm1.697 0h-1.402V69.07h1.402v2.493zm1.697 0h-1.403V69.07h1.402v2.493zm1.698 0H30.89V69.07h1.402v2.493zM15.318 77.194v2.85h17.057v-2.85H15.318zm1.699 2.671h-1.403V77.37h1.403v2.496zm1.698 0h-1.402V77.37h1.402v2.496zm1.695 0h-1.402V77.37h1.402v2.496zm1.698 0h-1.402V77.37h1.402v2.496zm1.697 0h-1.402V77.37h1.402v2.496zm1.698 0h-1.402V77.37h1.402v2.496zm1.698 0H25.8V77.37h1.402v2.496zm1.697 0h-1.402V77.37h1.402v2.496zm1.697 0h-1.403V77.37h1.402v2.496zm1.698 0H30.89V77.37h1.402v2.496zM15.4 85.491c.067.27.146.537.227.801v-.62h1.402v2.49h-.752c.02.06.044.121.068.176h16.037V85.49H15.401zm3.33 2.671h-1.402v-2.49h1.403v2.49zm1.695 0h-1.402v-2.49h1.402v2.49zm1.699 0h-1.402v-2.49h1.402v2.49zm1.696 0h-1.402v-2.49h1.402v2.49zm1.699 0h-1.402v-2.49h1.402v2.49zm1.698 0h-1.402v-2.49h1.402v2.49zm1.697 0h-1.402v-2.49h1.402v2.49zm1.696 0h-1.402v-2.49h1.402v2.49zm1.699 0h-1.403v-2.49h1.403v2.49zM19.351 93.792c.046.056.088.12.131.175h.928v1.197l.3.35V93.96h1.401v2.514h-.576c.056.057.11.119.175.175h10.662v-2.857H19.35zm4.462 2.682h-1.402V93.97h1.402v2.503zm1.699 0H24.11V93.97h1.402v2.503zm1.698 0h-1.402V93.97h1.402v2.503zm1.697 0h-1.403V93.97h1.402v2.503zm1.696 0h-1.402V93.97h1.402v2.503zm1.698 0H30.9V93.97h1.402v2.503zM28.709 102.093c.16.091.324.175.487.264v-.087h1.402v.79c.102.044.198.091.298.137v-.927h1.402v1.517a.596.596 0 00.082.03v-1.724H28.71zM133.601 110.255h.175-.175zm-11.265-26.32c.034.112.063.224.093.335a4.897 4.897 0 00-.093-.335zm-83.8-51.655v.747h7.829v-.75l-7.83.003zm95.066 77.975h.176-.176zm-11.266-26.32c.034.112.063.224.093.335a4.897 4.897 0 00-.093-.335zm11.265 26.32h.175-.175zm-11.265-26.32c.034.112.063.224.093.335a4.897 4.897 0 00-.093-.335zM155.33 151.232c9.432 0 17.078-1.228 17.078-2.743s-7.646-2.743-17.078-2.743c-9.432 0-17.078 1.228-17.078 2.743s7.646 2.743 17.078 2.743zM78.308 148.489c9.431 0 17.078-1.228 17.078-2.743 0-1.514-7.646-2.742-17.078-2.742-9.432 0-17.079 1.228-17.079 2.742 0 1.515 7.647 2.743 17.079 2.743z" fill="#1AADBB"/><path d="M97.969 73.217a.092.092 0 00-.026-.045c-.262-.258-3.592-4.967-3.592-4.967s-.175-.526-.459-1.21c.091-.118.16-.251.202-.394.015-.06.026-.122.033-.184 0-.02.014-.035.02-.054a1.33 1.33 0 00-.018-.722c-.02.06-.044.118-.072.175a2.93 2.93 0 00-.263-.586c-.442-.76-1.073-1.402-1.537-2.143a5.8 5.8 0 01-.79-3.849v.207c.017-.265.052-.529.105-.789.073-.296.17-.586.292-.866.417-.955 1.092-1.787 1.502-2.746.138-.323.242-.66.312-1.004.145-.576.197-1.17.156-1.762 0 .14-.023.28-.044.42a5.705 5.705 0 00-1.61-3.799c-1.432-1.439-3.488-1.998-5.455-2.293a4.996 4.996 0 01-2.296-.876c-.755-.489-1.731-.606-2.615-.5a4.313 4.313 0 00-2.662 1.317c-.934 1.027-1.339 2.482-2.43 3.348-.66.525-1.498.77-2.267 1.128-.77.358-1.497.877-1.744 1.644v-.016.044l-.01.028c-.256.908.238 1.832.496 2.738.268.938.285 1.928.3 2.897.019 1.185.036 2.372.017 3.558-.009.466-.025.938-.06 1.402a7.347 7.347 0 00-1.204.484c-.392.256-1.861 1.842-1.861 1.842L67.516 76.62l.039.044-.039.15.146-.034c.406.438 1.62 1.686 2.932 2.464l.123 2.152s.147 2.16 2.133 3.052c.045.748.187 3.787-.47 4.991a5.61 5.61 0 00-.62 2.854s.229 1.826-.032 2.786a4.557 4.557 0 00-.033 1.956v.577c0 1.944.022 8.173 0 8.877-.034.833 0 13.145 0 13.145s-.163 6.154-.686 7.821c-.522 1.667-.39 7.186-.39 7.186s-.328 6.574.83 7.871c0 .058-.01.117-.012.175v.083c-.014.499.082 1.03.512 1.193.876.337 2.035 1.346 2.254 1.635.219.29 1.493 1.01 3.154.817a23.798 23.798 0 013.136-.144s.655-.119.443-.934c-.136-.508-.648-1.29-1.013-1.803.067.017.132.031.193.044l.063.012h.05a.543.543 0 00.08 0h.035a.537.537 0 00.098 0c.44-.042 2.08.722 2.373 1.227.293.505 1.325.888 2.103.985.463.056 1.63-.039 2.61-.165.493-.051.982-.14 1.462-.266.231-.088.28-.368.214-.684a1.775 1.775 0 00-.607-1.023c-.284-.202-.659-.733-.936-1.168l-.073-.117c.489-.466 1.372-1.991 1.64-2.307.326-.384-.526-14.421-.526-14.421v-7.037l1.306-6.66.913-3.524.784-5.322s1.37-6.215.948-6.825c0-.012-.35-6.41-.719-7.948-.16-.685-.119-2.228-.024-3.728a.736.736 0 00.175-.767 1.597 1.597 0 00-.102-.262v-.08a12.063 12.063 0 012.361-.803c1.306-.256.98-.929.98-.929s.294-.576.489-.929c.195-.352.033-3.461 0-3.717a133.74 133.74 0 00-.186-1.323c.42-.298.964-.668 1.558-1.019 1.13-.67.877-1.376.784-1.56zm-17.036 44.436s-.98 2.499-.587 3.139c.392.64-.065 3.014-.065 3.014l-.328 3.525s-.913 6.538-.587 8.075c.256 1.206.35 4.807.38 6.309a.501.501 0 00-.065.032l-.043.023c.15-.591.087-1.786-.661-4.191l-.063-9.932s-.116-11.473.79-12.756c.906-1.283 1.227-3.462 1.227-3.462s-.196 3.143-.324 3.975c-.128.833.326 2.249.326 2.249zm-1.825 24.688c-.008.021-.019.042-.026.061l-.05-.063c.026.003.051.003.076.002z" fill="url(#paint0_linear)"/><path d="M89.1 146.278c-.506.194-3.253.525-4.02.432-.768-.092-1.785-.482-2.074-.99-.289-.508-1.91-1.276-2.345-1.227a1.562 1.562 0 01-.526-.073 6.532 6.532 0 01-.876-.337 1.627 1.627 0 01.058-.796c.102-.287.314-.523.589-.655l.063-.03c.121-.052.248-.091.378-.116 1.378-.264 7.062.267 7.062.267s.16.286.378.64c.274.438.645.972.926 1.174.31.265.521.629.598 1.03.066.311.017.595-.21.681z" fill="#fff"/><path opacity=".1" d="M89.1 146.278c-.506.194-3.25.525-4.018.432-.768-.092-1.785-.483-2.075-.99-.291-.506-1.91-1.276-2.344-1.227-.434.049-1.402-.41-1.402-.41s-.15-.701.287-1.179l.877.622s2.345.727 2.78 1.402c.434.675 1.226 1.052 2.37 1.12.856.056 2.82-.277 3.741-.444.061.304.014.588-.216.674z" fill="#000"/><path d="M80.71 147.171a23.361 23.361 0 00-3.095.146c-1.646.193-2.902-.526-3.121-.822-.22-.296-1.353-1.297-2.225-1.648-.425-.164-.525-.701-.506-1.202v-.082c.016-.318.063-.633.14-.942l6.82-.145.59.801.092.123.359.489s.163.213.377.525c.36.526.866 1.303 1 1.816.216.822-.43.941-.43.941z" fill="#fff"/><path opacity=".1" d="M80.71 147.171a23.361 23.361 0 00-3.095.146c-1.644.193-2.902-.526-3.12-.822-.217-.296-1.354-1.306-2.226-1.644-.425-.165-.525-.701-.506-1.203.487.114 1.51.405 1.912.912.526.676 1.467 1.814 2.804 1.886 1.08.058 3.71-.135 4.673-.212.207.818-.442.937-.442.937z" fill="#000"/><path opacity=".1" d="M79.899 142.625c-.079.585-.323.743-.498.778a.353.353 0 01-.13 0 .524.524 0 01-.068-.01s-6.124 1.353-7.361.257a.794.794 0 01-.088-.091c.016-.317.063-.633.14-.941l6.82-.146.59.801c.103-.287.315-.523.59-.655l.005.007zM87.786 143.386c-.137.15-.25.236-.323.206-.322-.129-2.965-.58-3.805-.192-.84.387-3.68.063-3.68.063s0-.337-.016-.877c.121-.052.248-.091.379-.115 1.377-.265 7.061.266 7.061.266s.167.295.384.649z" fill="#000"/><path d="M91.785 103.74l-.774 5.353-.901 3.547-1.29 6.706v7.098s.838 14.123.515 14.509c-.322.385-1.547 2.582-1.87 2.454-.322-.128-2.965-.581-3.805-.195-.84.386-3.68.065-3.68.065s-.065-5.481-.388-7.028c-.322-1.548.58-8.126.58-8.126l.323-3.545s.452-2.387.065-3.032c-.388-.645.58-3.155.58-3.155s-.45-1.422-.321-2.259c.13-.838.32-3.998.32-3.998s-.32 2.194-1.216 3.482c-.895 1.288-.781 12.833-.781 12.833l.063 9.991c1.614 5.289 0 4.772 0 4.772s-6.124 1.355-7.361.258c-1.238-1.097-.884-8.003-.884-8.003s-.128-5.545.388-7.221c.515-1.676.678-7.868.678-7.868s-.033-12.382 0-13.218c.024-.701 0-6.978 0-8.939v-.58l.74-1.837 8.763-1.097h4.192s6.31 1.483 6.962 2.122c.014.011.026.024.035.039.422.619-.933 6.872-.933 6.872z" fill="#1AADBB"/><path opacity=".1" d="M81.145 131.857s1.928 4.642 2.838 4.965c.91.322-2.838-4.965-2.838-4.965zM81.858 138.692s6.51.322 6.445 1.032c-.065.71-6.445-1.032-6.445-1.032zM73.15 136.836c.257.243 4.965.701 4.577 1.146-.387.445-4.19 1.311-4.19 1.311l-.388-2.457zM72.376 128.826c0 .193.968 6.191 1.227 6.448.26.258 2.386.515 2.386.515l-3.613-6.963z" fill="#000"/><path d="M79.396 46.847c-.924 1.032-1.323 2.495-2.4 3.368-.653.526-1.48.777-2.241 1.134-.76.358-1.515.903-1.74 1.713-.253.911.234 1.842.49 2.753.265.943.28 1.928.296 2.915.018 1.193.037 2.387.016 3.58-.031 1.86-.186 3.805-1.172 5.381 3.563 1.134 7.352 1.288 11.089 1.434.718.051 1.44.033 2.154-.055.619-.123 1.231-.278 1.835-.464a14.067 14.067 0 013.656-.468c.538 0 1.087.033 1.605-.107.52-.14 1.019-.5 1.159-1.018.124-.466-.058-.962-.296-1.381-.435-.764-1.052-1.402-1.518-2.156a5.925 5.925 0 01-.38-5.326c.413-.963 1.08-1.8 1.486-2.764a5.829 5.829 0 00-1.175-6.184c-1.414-1.447-3.444-2.008-5.386-2.306a4.892 4.892 0 01-2.267-.877c-.745-.49-1.711-.61-2.584-.5a4.217 4.217 0 00-2.627 1.328z" fill="#3F3D56"/><g opacity=".1" fill="#000"><path opacity=".1" d="M92.003 57.138a5.832 5.832 0 00-.447 2.677c.04-.654.19-1.297.447-1.9.412-.962 1.078-1.8 1.484-2.764a5.592 5.592 0 00.409-2.545 5.452 5.452 0 01-.409 1.77c-.406.964-1.072 1.8-1.484 2.762zM73.854 58.491c.01.688.021 1.376.023 2.063 0-.946-.009-1.89-.023-2.836-.014-.98-.031-1.971-.296-2.916-.176-.6-.435-1.208-.526-1.812-.156.859.288 1.73.526 2.587.264.936.282 1.935.296 2.914zM93.044 67.029c-.526.142-1.066.11-1.604.107a14.063 14.063 0 00-3.654.459c-.603.185-1.216.34-1.835.463-.715.088-1.437.107-2.156.056-3.61-.142-7.272-.295-10.73-1.327-.102.229-.22.451-.35.666 3.563 1.132 7.352 1.288 11.087 1.433.719.052 1.441.033 2.156-.056a18.132 18.132 0 001.828-.46 14.06 14.06 0 013.647-.465c.538 0 1.085.033 1.604-.109.519-.142 1.018-.497 1.159-1.016.059-.24.053-.492-.018-.73-.156.491-.638.833-1.134.979z"/></g><path d="M87.853 64.952c-.13.29-.677 2.804-.807 3.062-.13.257-.837 4.381-.902 4.613-.065.231-4.668-.968-4.668-.968l-2.77-2.322-2.849-2.834s-.084-2.557 2.014-3.377a3.21 3.21 0 01.438-.137c2.545-.612 2.29-8.35 2.29-8.35l5.222 2.256s-.967 4.515-.934 5.386c.009.292.238.475.538.585.463.132.946.184 1.427.154 0 0 1.13 1.642 1 1.932z" fill="#FBBEBE"/><path d="M97.203 73.431l.741.195s.549.834-.741 1.61a22.352 22.352 0 00-2.354 1.646l-3.812 1.16-.734-2.304 3.547-2.692 3.353.385z" fill="#1AADBB"/><path opacity=".1" d="M97.203 73.431l.741.195s.549.834-.741 1.61a22.352 22.352 0 00-2.354 1.646l-3.812 1.16-.734-2.304 3.547-2.692 3.353.385z" fill="#000"/><path d="M69.383 75.657L67.9 77.108s2.675 3.096 4.732 3.288c2.058.193 3.385-2.353 3.385-2.353l-1.78-2.805-4.854.42z" fill="#1AADBB"/><path opacity=".1" d="M69.383 75.657L67.9 77.108s2.675 3.096 4.732 3.288c2.058.193 3.385-2.353 3.385-2.353l-1.78-2.805-4.854.42zM83.467 59.696a5.158 5.158 0 100-10.317 5.158 5.158 0 000 10.317z" fill="#000"/><path d="M83.467 59.308a5.158 5.158 0 100-10.316 5.158 5.158 0 000 10.316z" fill="#FBBEBE"/><path opacity=".1" d="M92.722 97.453a16.651 16.651 0 00-3.451.773c-1.928.642-17.037.01-17.247 0v-.58l.74-1.837 8.763-1.097h4.192s6.31 1.483 6.962 2.123c.026.385.04.618.04.618zM87.853 64.952c-.13.29-.677 2.804-.807 3.062-.13.257-.837 4.381-.902 4.613-.065.231-4.668-.968-4.668-.968l-2.77-2.322-2.849-2.834s-.084-2.557 2.014-3.378l5.209 5.99 2.345-6.249c.463.132.946.184 1.427.154 0 0 1.13 1.642 1 1.932z" fill="#000"/><path d="M83.08 69.307l-5.332-6.134a2.233 2.233 0 00-2.115-.156c-1.194.517-2.676.936-3.064 1.193-.387.258-1.838 1.853-1.838 1.853l4.322 11.306-1.904 7.448s.291 3.805-.45 5.19a5.698 5.698 0 00-.614 2.87s.227 1.839-.031 2.804a4.67 4.67 0 00-.033 1.967s15.316.645 17.25 0c1.119-.38 2.276-.64 3.45-.773 0 0-.35-6.45-.7-7.998-.351-1.547.29-7.447.29-7.447l-.419-6.32 2.514-6.485s-1.362-4.157-2.782-4.576c0 0-2.578-.613-3.126-.903-.549-.289-2.162-.548-2.162-.548l-.846.284-2.41 6.425z" fill="#1AADBB"/><path opacity=".1" d="M90.519 74.897l-11.22-.763a.515.515 0 00-.549.48l-1.204 17.713c-.02.284.195.53.48.549l11.218.763c.284.019.53-.195.55-.48l1.204-17.713a.515.515 0 00-.48-.55z" fill="#000"/><path d="M90.905 74.512l-11.22-.763a.515.515 0 00-.548.48l-1.205 17.713c-.019.284.195.53.48.55l11.219.762c.284.02.53-.195.549-.48l1.204-17.713a.515.515 0 00-.479-.549z" fill="#3F3D56"/><path d="M90.535 75.9l-10.67-.725-1.097 16.126 10.67.725 1.097-16.125z" fill="#fff"/><path opacity=".1" d="M89.578 80.017l-8.716-.61-.17 2.429 8.716.61.17-2.43zM89.263 89.67l-1.384-.094-.086 1.266 1.384.094.086-1.266zM87.898 86.615l-7.08-.482-.086 1.266 7.08.482.086-1.266z" fill="#000"/><path d="M89.214 75.298l-7.372-.502-.132 1.947 7.372.5.132-1.945z" fill="#3F3D56"/><path opacity=".1" d="M89.214 75.298l-7.372-.502-.132 1.947 7.372.5.132-1.945zM83.725 97.097s-.065 9.546-2.58 15.026c0 0 3.032-7.223 3.032-7.512 0-.289 1.676-3.321 1.227-4.224-.449-.902-1.679-3.29-1.679-3.29zM83.862 52.86a3.588 3.588 0 01.583-2.403 2.96 2.96 0 002.29 3.12.388.388 0 01-.111-.424c.36.406.634.888 1.041 1.246.407.357 1.017.571 1.495.317.65-.35.657-1.274.489-1.993a9.358 9.358 0 00-2.154-4.113 2.85 2.85 0 00-2.26-1.15c-.996-.077-2.03.01-2.923.457a7.765 7.765 0 00-1.402.98L78.457 50.9c-.237.17-.439.383-.596.627a1.717 1.717 0 00-.186.657 3.542 3.542 0 001.65 3.343 2.614 2.614 0 011.566-2.454.68.68 0 01.244.507l.517-.922c.076-.168.198-.312.35-.416.32-.175.717.032.989.279.271.247.536.556.9.594l.014-1.372" fill="#000"/><path d="M83.862 52.667a3.59 3.59 0 01.583-2.404c-.157 1.402.9 2.85 2.291 3.12a.384.384 0 01-.11-.423c.359.407.634.887 1.04 1.246.407.36 1.017.572 1.496.316.65-.35.657-1.275.489-1.991a9.36 9.36 0 00-2.154-4.114 3.449 3.449 0 00-1.204-.936 3.507 3.507 0 00-1.052-.214c-.995-.077-2.03.009-2.922.456a7.861 7.861 0 00-1.402.982l-2.454 2.001c-.236.17-.438.383-.595.627a1.71 1.71 0 00-.186.658 3.54 3.54 0 001.65 3.34 2.616 2.616 0 011.566-2.453.685.685 0 01.244.506l.515-.918c.076-.168.198-.312.35-.416.32-.175.717.032.989.279.272.247.536.554.9.594l.015-1.374" fill="#3F3D56"/><path d="M86.305 85.202c-.45-.228-7.9.934-7.9.934s-1.226-.35-4.192-.837c-2.965-.488-3.154-3.387-3.154-3.387l-.325-5.803 1.001-.876 4.287 2.804s.067 1.418 0 1.674c-.042.175-.154.384-.144.526a.176.176 0 00.144.157c.291.074 4.256.716 4.256.716s9.189-.63 11.48 2.466c.181.227.318.486.404.764.568 2.115-5.449 1.064-5.857.862z" fill="#FBBEBE"/><path opacity=".1" d="M92.168 84.352c-.35.156-.568.268-.568.268s-3.288-.096-5.136-.766c-1.847-.67-4.092-.55-4.092-.55s-7.698-1.325-6.504-3.055a.175.175 0 00.144.158c.29.074 4.255.715 4.255.715s9.19-.63 11.48 2.466c.187.226.33.485.42.764z" fill="#000"/><path d="M95.365 74.141s.452 3.192.483 3.451c.032.26.195 3.384 0 3.74-.194.356-.483.934-.483.934s.322.677-.968.936c-1.29.26-2.804 1.03-2.804 1.03s-3.29-.096-5.127-.772c-1.837-.677-4.094-.549-4.094-.549s-9.771-1.677-5.579-3.724c4.193-2.047 7.158.725 7.158.725l4.675-.289s1.742-1.065 2.225-.967c.342.043.689-.013 1-.161l.033-3.386 3.48-.968z" fill="#FBBEBE"/><path opacity=".1" d="M71.661 66.307l-.936-.05L67.89 77.3s3.061-.774 4.381 0c1.32.775 3.74.934 3.74.934l-.902-8.801-3.448-3.125z" fill="#000"/><path d="M71.661 66.112l-.936-.05-2.835 11.043s3.061-.775 4.381 0c1.32.774 3.74.934 3.74.934l-.902-8.802-3.448-3.125z" fill="#1AADBB"/><path opacity=".1" d="M93.109 68.53l1.288.292s3.29 4.732 3.547 4.996c.258.265-1.227 1.227-1.838 1.227-.612 0-3.61.35-4.482 1.16-.87.81-.508-3.265-.508-3.358 0-.092 1.081-2.663 1.081-2.663l.912-1.653z" fill="#000"/><path d="M93.109 68.338l1.288.29s3.29 4.74 3.547 4.998c.258.257-1.227 1.227-1.838 1.227-.612 0-3.61.35-4.482 1.16-.87.81-.508-3.265-.508-3.358 0-.093 1.088-2.673 1.088-2.673l.905-1.644z" fill="#1AADBB"/><g opacity=".1" fill="#000"><path opacity=".1" d="M84.437 50.278a2.584 2.584 0 01.008-.403c-.266.4-.45.85-.54 1.324v.488c0 .285 0 .57-.008.854h-.025v.132c0-.046 0-.09-.008-.135-.351-.056-.602-.351-.863-.586s-.67-.459-.988-.279a1.005 1.005 0 00-.35.416l-.521.918a.678.678 0 00-.244-.505 2.613 2.613 0 00-1.565 2.454 3.562 3.562 0 01-1.663-2.792 3.545 3.545 0 001.663 3.178 2.617 2.617 0 011.565-2.454.685.685 0 01.244.507l.515-.919c.076-.168.198-.312.35-.415.32-.175.717.031.989.279.272.247.536.553.9.594 0-.449.005-.896.015-1.343.086-.468.265-.915.526-1.313z"/><path opacity=".1" d="M83.844 52.043c.009-.119.023-.238.04-.35l.02-.484a3.548 3.548 0 00-.06.834zM89.162 54.134c-.479.256-1.089.042-1.495-.315-.407-.358-.682-.84-1.041-1.246a.386.386 0 00.11.424c-.035 0-.068-.018-.102-.026.351.403.63.876 1.033 1.226.403.35 1.016.572 1.495.316.478-.256.615-.855.573-1.44-.032.46-.196.858-.573 1.061zM86.624 52.967a2.98 2.98 0 01-2.184-2.605c-.1 1.376.938 2.756 2.296 3.02a.386.386 0 01-.112-.415z"/></g><path d="M170.794 81.613s-.69-.097-.69-1.101-.494-2.885-.494-2.885-.428-3.272-1.019-3.791c-.59-.519-1.349-3.565-1.349-3.565s-.13-1.653-.395-2.008c-.264-.356-.622-1.227-1.149-2.47-.528-1.243-2.722-2.094-2.722-2.094s-3.977-2.307-5.104-3.059a1.746 1.746 0 01-.288-.217c-.196-.256-1.051-.261-1.051-.261a17.142 17.142 0 01-.203-1.802v-.19a6.063 6.063 0 002.665-3.298c.021-.066.039-.135.058-.203a.563.563 0 00.351-.309c.1-.226.103-.489.229-.7.148-.25.428-.383.649-.569.557-.475.701-1.272.675-1.996-.018-.589-.113-1.181-.076-1.765 0-.049 0-.098.011-.147.01-.086.023-.175.038-.26.086-.434.274-.844.379-1.275.105-.431.116-.917-.13-1.289-.359-.545-1.108-.653-1.765-.7-.745-.064-1.402.017-1.887-.602a6.59 6.59 0 00-.751-.904c-.098-.091-1.051-.675-1.051-.712a4.262 4.262 0 00-2.98-.23c-.496.144-.96.38-1.463.497-1.08.256-2.324-.021-3.243.597-.511.35-.818.91-1.106 1.452-.233.446-.47.893-.711 1.34-.389.735-.782 1.481-.945 2.294a3.892 3.892 0 00-.065.539v.278c0 .06 0 .12.011.175.01.057 0 .072.012.11.012.036.016.118.026.174.011.056.032.156.053.232 0 .033.021.065.032.098.01.033.038.117.061.175.023.058.024.062.038.091.027.062.058.121.09.176.014.022.024.045.038.068.048.082.102.16.162.235.373.468.927.766 1.335 1.204V53.142a6 6 0 002.748 4.89c0 .067.009.135.013.204.034.52.027 1.04-.02 1.56a.739.739 0 00-.582-.26.83.83 0 00-.224.02l-.016-.013v.016c-.385.094-.86.496-1.314 1.637 0 0-1.381 1.556-2.433 1.491-1.051-.065-3.714 1.621-3.714 1.621s-2.597 1.685-3.155 3.402a23.561 23.561 0 01-1.12 2.854l-3.219 6.61-.591 5.259s.328 2.333.263 2.69c-.065.358 1.348 3.565 1.348 3.565s4.667 8.2 6.574 8.62l.137-.095c.082.041.168.073.257.095l.393-.275c.024.308.014.618-.032.923-.261.812.1 6.094.56 7.13.459 1.036.296 14.619.296 14.619l-.065 1.197s0 .039.016.105l-.016.284.047.025c.049.381.033.767-.047 1.143-.165.525-.231 2.01-.231 2.01s-1.315 8.392-.691 10.078 1.152 3.533 1.152 3.533.657 2.103.031 2.454-2.398.973-2.037 1.847c.334.81 1.597 2.98 1.785 3.297l-.016.175-.258 2.792c.042.369.142.729.297 1.066.282.61.829 1.239 1.873 1.171.175-.013.377-.032.575-.058 1.909-.258 4.257-1.11 4.257-1.11a1.647 1.647 0 01-.331-.275.976.976 0 01-.219-.32.976.976 0 01-.074-.381c.028-.51-.923-2.93-1.162-3.528l-.054-.133s2.17-2.27 1.809-4.278c0 0-2.401-1.403-1.611-2.174.79-.771 2.203-2.979 2.203-2.979s.065-8.264 0-9.496a10.213 10.213 0 01.121-2.566c.026-.126.058-.251.091-.375 1.094.165 2.199.249 3.306.25.404 0 .813-.008 1.227-.024 0 .117.005.243.015.378.091 2.048.261 5.639.4 6.973.196 1.91 1.281 7.065 1.281 7.065s-2.07 1.326.361 4.602c0 0 0 1.185-.161 1.358a14.837 14.837 0 00-.415 1.713c-.102.615-.144 1.241.021 1.563.394.775 2.76.712 2.76.712a3.369 3.369 0 012.562.745c.9.722 4.31.406 6.159.175.724-.093 1.208-.175 1.208-.175a.697.697 0 00.024-.253c-.019-.454-.375-1.449-2.786-2.338 0 0-2.268-1.525-2.237-2.853h-.312c.165-.005.281-.005.281-.005s-.889-3.241-.526-3.506c.363-.264-.724-3.856-.724-3.856s-.622-6.029-.657-6.449c.002-.363.058-.723.165-1.07l-.165-3.307s-.032-1.099 0-1.456a6.841 6.841 0 00-.074-.927c-.016-.123-.031-.251-.049-.377.85-.216 1.402-.414 1.402-.414l-.098-11.506c.722-1.402.855-4.48.852-6.66 0-1.403-.063-2.44-.063-2.44l.987-1.61s.227-1.929-.134-2.351c-.159-.191-.087-.39.044-.552.069-.057.143-.109.219-.154a.282.282 0 01-.022-.039c.068-.058.142-.11.219-.156 0 0-.351-.543-.037-.773.294.2.557.36.757.473-.014.128-.028.202-.028.202l.084-.175.31.175s1.546-3.08 1.513-3.532c-.033-.452 1.051-2.366 1.051-2.366s.132-1.006.724-1.427c.593-.42.459-3.468.459-3.468s.165-1.588.56-2.235c.394-.646-.353-1.526-.353-1.526zm-29.578-1.352l.03.735-.301-.484.271-.25z" fill="url(#paint1_linear)"/><path d="M166.931 94.835l-.378 1.612s-3.032-1.55-3.577-3.514c-.545-1.963.913-2.711.913-2.711l2.827 1.195.215 3.418z" fill="#fff"/><path opacity=".1" d="M166.931 94.835l-.378 1.612s-3.032-1.55-3.577-3.514c-.545-1.963.913-2.711.913-2.711l2.827 1.195.215 3.418z" fill="#000"/><path d="M149.915 149.713s-2.805 1.03-4.733 1.16c-1.023.068-1.561-.559-1.838-1.164a3.528 3.528 0 01-.291-1.051l.254-2.778.133-1.478 4.096-1.065.58 1.775.055.133c.231.594 1.167 3.003 1.139 3.506a.963.963 0 00.286.701c.095.1.202.188.319.261zM169.061 148.3a.69.69 0 01-.025.252s-5.997 1-7.224 0a3.268 3.268 0 00-1.18-.636 3.266 3.266 0 00-1.337-.105s-2.321.063-2.708-.701c-.161-.321-.119-.943-.019-1.555.102-.575.238-1.144.406-1.703l.093-.074.552-.443 6.464-.191h.049c-.031 1.321 2.193 2.837 2.193 2.837 2.368.877 2.717 1.867 2.736 2.319z" fill="#fff"/><path opacity=".1" d="M169.062 148.3a.69.69 0 01-.026.252s-5.997.999-7.223 0a3.25 3.25 0 00-2.518-.741s-2.322.063-2.71-.701c-.159-.321-.119-.943-.019-1.556.894.089 2.305.312 2.859.844.837.807 2.257 1.613 3.126 1.678.687.042 4.773.172 6.511.224z" fill="#000"/><path d="M154.075 66.655c-2.313-.899-5.289-3.87-4.546-5.258a3.15 3.15 0 00.289-1.114 10.13 10.13 0 00.021-1.578 21.718 21.718 0 00-.31-2.567s7.223.163 6.802 1.226c-.123.314-.144.856-.109 1.46.036.605.121 1.294.213 1.874.124.794.252 1.402.252 1.402s-.444.619-.701.652c-.258.033 1.409 5.192-1.911 3.903z" fill="#CF6F80"/><path opacity=".1" d="M148.164 145.236l-.055.06c-2.159-2.612-4.77.645-4.77.645l-.039-.07.133-1.478 4.096-1.065.58 1.775.055.133zM164.136 143.328s-1.578-.032-2.419.711-4.907.16-4.732 0a.611.611 0 00.091-.268l.552-.443 6.464-.191c.024.122.044.191.044.191z" fill="#000"/><path d="M150.851 122.82a4.84 4.84 0 00-.267.899 10.29 10.29 0 00-.121 2.552c.065 1.227 0 9.448 0 9.448s-1.386 2.193-2.161 2.966c-.774.773 1.578 2.161 1.578 2.161.35 2-1.774 4.257-1.774 4.257-2.159-2.611-4.771.643-4.771.643s-1.42-2.453-1.774-3.33c-.354-.876 1.387-1.481 1.998-1.838.612-.358-.031-2.454-.031-2.454s-.515-1.839-1.129-3.516c-.613-1.677.677-10.025.677-10.025s.066-1.485.226-2.002c.079-.373.095-.757.047-1.135-.01-.128-.023-.234-.031-.307-.009-.074-.016-.105-.016-.105l.024-.042.877-1.634s7.068 2.433 6.648 3.462zM164.136 143.135s-1.578-.033-2.419.701-4.907.161-4.732 0c.175-.161.159-1.353.159-1.353-2.385-3.258-.35-4.58-.35-4.58s-1.064-5.126-1.257-7.028c-.135-1.327-.301-4.907-.391-6.935-.038-.877-.061-1.481-.061-1.481l1.931-.384.251-.049 4.701-.945s.129.876.217 1.593c.044.306.068.615.072.924-.03.35 0 1.449 0 1.449l.161 3.288a3.805 3.805 0 00-.161 1.064c.033.421.645 6.417.645 6.417s1.064 3.579.701 3.836c-.363.258.533 3.483.533 3.483z" fill="#1AADBB"/><path opacity=".1" d="M156.331 57.37c-.122.313-.143.855-.108 1.46a6.005 6.005 0 01-6.384-.12 21.515 21.515 0 00-.31-2.567s7.223.163 6.802 1.227z" fill="#000"/><path d="M159.12 53.5a5.997 5.997 0 01-11.992.144V53.5a6 6 0 015.997-5.998 5.996 5.996 0 015.998 5.998h-.003z" fill="#CF6F80"/><path opacity=".1" d="M154.075 66.655c-2.313-.899-5.289-3.87-4.546-5.258a3.15 3.15 0 00.289-1.114l3.167 2.604 1.96 1.607 1.49-3.79c.124.793.252 1.401.252 1.401s-.444.62-.701.652c-.258.034 1.409 5.187-1.911 3.898z" fill="#000"/><path d="M162.266 78.165l-2.645 44.43-3.449.226-8.934-25.762 1.466-30.586.31-6.462 3.971 3.262 1.96 1.607 1.533-3.903 2.852 2.485 2.936 14.703z" fill="#1AADBB"/><path opacity=".1" d="M150.85 122.82c-.117.29-.206.591-.266.899a25.44 25.44 0 01-7.238-2.259l-.048-.025.016-.282v-.147l.876-1.634s7.081 2.419 6.66 3.448zM157.074 123.726c-.641.11-1.288.184-1.938.222-.039-.876-.062-1.481-.062-1.481l1.942-.392.058 1.651zM162.192 122.674c-1.246.325-3.172.689-4.893.461l-.025-1.109 4.701-.945s.124.869.217 1.593z" fill="#000"/><path opacity=".1" d="M157.267 123.339c-7.186 1.226-13.767-2.291-13.767-2.291l.063-1.192s.163-13.511-.289-14.547c-.452-1.036-.805-6.282-.549-7.083.256-.8-.934-12.894-.934-12.894l-.193-4.908-7.061-2.869 3.154-6.578c.426-.922.793-1.87 1.098-2.839.548-1.709 3.095-3.386 3.095-3.386s2.611-1.676 3.644-1.612c1.032.063 2.385-1.483 2.385-1.483.999-2.547 1.903-1.402 1.903-1.402 0 .122 0 0-.049.376-.35 2.796 5.668 11.63 5.754 11.787l.581 13.962.58 17.669.585 19.29z" fill="#000"/><path d="M157.074 123.339c-7.186 1.226-13.769-2.291-13.769-2.291l.065-1.192s.161-13.511-.291-14.547c-.452-1.036-.804-6.287-.547-7.095.258-.808-.939-12.89-.939-12.89l-.195-4.907-7.059-2.869 3.154-6.578c.425-.921.792-1.87 1.098-2.837.548-1.704 3.104-3.383 3.104-3.383s2.611-1.675 3.642-1.612c1.03.063 2.39-1.481 2.39-1.481 1.001-2.547 2.103-1.402 2.103-1.402 0 .122-.105.175-.049.376.772 2.712 5.476 11.63 5.562 11.787l.58 13.962.568 17.677.583 19.282z" fill="#fff"/><path opacity=".1" d="M155.138 72.813c-.773-.323-4.868-4.997-4.868-4.997v-1.064c-.149-.35-1.035-.137-1.752.108l.308-6.462.351.291c.766 2.71 5.876 11.967 5.961 12.123z" fill="#000"/><path d="M155.332 72.427c-.775-.324-4.869-4.997-4.869-4.997v-1.066c-.149-.35-1.034-.136-1.752.109l.303-6.455.35.29c.773 2.705 5.882 11.961 5.968 12.119z" fill="#fff"/><path opacity=".1" d="M143.5 95.737c.096 0 4.997-.515 4.997-.515s2.967 5.837 2.772 7.254c-.194 1.418-.546 2.677-1.74 2.454-1.194-.222-6.424.175-6.424.175l.395-9.368z" fill="#000"/><path d="M143.305 95.35c.098 0 4.999-.515 4.999-.515s2.965 5.845 2.773 7.247c-.193 1.402-.549 2.676-1.741 2.454-1.192-.223-6.425.175-6.425.175l.394-9.36z" fill="#fff"/><path d="M146.998 92.618s4.498 2.418 4.594 3.154c.096.737-2.289-.322-2.804-.452a6.697 6.697 0 00-1.033-.16l-3.437.092 2.68-2.634z" fill="#CF6F80"/><path opacity=".1" d="M153.881 73.114a.473.473 0 100-.947.473.473 0 000 .947z" fill="#000"/><path d="M153.881 72.921a.473.473 0 100-.946.473.473 0 000 .946z" fill="#3F3D56"/><path opacity=".1" d="M154.752 93.6a.473.473 0 100-.947.473.473 0 000 .946z" fill="#000"/><path d="M154.752 93.405a.473.473 0 100-.947.473.473 0 000 .947z" fill="#3F3D56"/><path opacity=".1" d="M154.354 83.357a.473.473 0 100-.946.473.473 0 000 .946z" fill="#000"/><path d="M154.354 83.164a.473.473 0 100-.946.473.473 0 000 .946z" fill="#3F3D56"/><path d="M165.263 95.06s.322.485 0 .702c-.323.217.031.775.031.775s-.804.47-.45.895c.354.426.13 2.338.13 2.338l-.968 1.611s.058 1.032.061 2.427c0 2.177-.127 5.237-.836 6.633l.095 11.446s-3.388 1.239-6.224.861l-.42-18.368s.613-10.416.839-12.414c.133-1.038.186-2.084.161-3.129 0 0-.096-3.127-.42-4.576 0 0-.351-6.289-.386-8.03-.016-.832.028-3.26.077-5.57.055-2.526.116-4.908.116-4.908l-.64-5.064s.64-.063.833.193c.086.08.18.153.28.216 1.106.746 5.008 3.042 5.008 3.042s2.159.859 2.676 2.09c.517 1.23.876 2.103 1.127 2.453.251.35.387 1.998.387 1.998s.743 3.032 1.324 3.546c.58.513.997 3.773.997 3.773l-5.127 4.031s-.45 6.706-.547 6.966c-.096.259 1.876 6.064 1.876 6.064z" fill="#fff"/><path d="M165.457 95.06s.321.485 0 .702c-.32.217.03.775.03.775s-.804.47-.45.895c.354.426.129 2.338.129 2.338l-.964 1.611s.058 1.032.064 2.428c0 2.176-.128 5.236-.836 6.632l.096 11.446s-3.388 1.239-6.224.861l-.419-18.368s.612-10.416.84-12.414c.132-1.038.186-2.083.159-3.129 0 0-.096-3.127-.419-4.576 0 0-.35-6.289-.387-8.029-.016-.833.028-3.262.077-5.572.055-2.525.116-4.907.116-4.907l-.845-5.132s.845 0 1.039.261c.086.082.18.154.281.216 1.104.746 5.005 3.042 5.005 3.042s2.155.86 2.68 2.09c.526 1.23.877 2.103 1.127 2.453.251.35.388 1.998.388 1.998s.743 3.032 1.323 3.546c.58.513.999 3.773.999 3.773l-5.127 4.032s-.45 6.705-.548 6.965c-.098.26 1.866 6.064 1.866 6.064z" fill="#fff"/><path opacity=".1" d="M159.318 67.24l.464 1.35-2.438 2.454c.055-2.526.116-4.907.116-4.907l-.845-5.13s.845 0 1.039.26c.086.082.18.154.281.216l2.072 5.975-.689-.217z" fill="#000"/><path d="M159.12 66.853l.464 1.348-2.436 2.454c.052-2.526.116-4.907.116-4.907l-.847-5.132s.847 0 1.039.26c.086.082.18.154.281.216l2.084 5.98-.701-.219z" fill="#fff"/><path opacity=".1" d="M159.12 53.5c0 .631-.099 1.259-.295 1.86a.246.246 0 01-.189-.046c-.047-1.578-.822-3.06-1.777-4.32a4.594 4.594 0 00-.964-1 1.889 1.889 0 00-1.308-.37c-.526.072-.99.43-1.521.476-.701.057-1.329-.428-2.024-.45a1.984 1.984 0 00-1.488.69 4.06 4.06 0 00-.798 1.477 8.623 8.623 0 00-.445 2.552c-.009.49-.056 1.106-.512 1.285a2.598 2.598 0 00-.661-1.998l-.01-.012V53.5a6 6 0 015.997-5.998 5.996 5.996 0 015.998 5.998h-.003z" fill="#000"/><path d="M155.614 43.977a4.129 4.129 0 00-2.913-.227c-.485.143-.943.377-1.435.494-1.052.254-2.279-.021-3.181.594-.501.35-.803.904-1.083 1.444l-.701 1.334c-.382.73-.768 1.474-.928 2.279-.159.804-.063 1.705.447 2.353.37.47.921.766 1.324 1.21a2.64 2.64 0 01.659 2.003c.455-.175.501-.794.511-1.285.02-.868.17-1.728.446-2.552.16-.542.431-1.046.797-1.477a1.988 1.988 0 011.488-.692c.701.024 1.33.51 2.024.45.526-.044.992-.401 1.522-.473.466-.044.933.088 1.307.37.371.28.695.618.962.999.957 1.262 1.734 2.737 1.779 4.32.198.144.484-.046.582-.27.098-.224.102-.487.226-.701.144-.247.419-.38.635-.566.547-.472.683-1.266.662-1.986-.021-.72-.161-1.451-.024-2.16.082-.432.268-.84.37-1.27.101-.43.114-.911-.127-1.281-.35-.542-1.088-.65-1.731-.701-.731-.063-1.385.017-1.851-.598a6.86 6.86 0 00-.736-.9c-.096-.094-1.031-.672-1.031-.71z" fill="#512E4E"/><path opacity=".1" d="M136.559 80.938l-1.829-3.385-.581 5.223s.323 2.32.258 2.677c-.065.355 1.322 3.545 1.322 3.545s4.579 8.16 6.449 8.578l6.31-4.515-1.676-2.128s-.58-.226-.725 0c0 0-3.113-5.352-3.434-5.738-.32-.385-.259-1.162-.259-1.162s-.484-.515-.323-.999c.162-.484-.925-2.16-.925-2.16l.999-.933-5.586.997z" fill="#000"/><path d="M134.826 77.166l-.484.388-.58 5.222s.323 2.321.258 2.677c-.065.355 1.323 3.545 1.323 3.545s4.578 8.16 6.448 8.578l6.32-4.515-1.677-2.128s-.58-.226-.726 0c0 0-3.111-5.352-3.433-5.738-.323-.385-.258-1.162-.258-1.162s-.484-.515-.322-.999c.161-.484-.936-2.16-.936-2.16l.999-.933-6.932-2.775z" fill="#fff"/><path opacity=".1" d="M164.844 97.634c.35.426.13 2.34.13 2.34l-.968 1.6s.058 1.034.061 2.429l-1.626.508a.974.974 0 01-.455.03.976.976 0 01-.706-.537.955.955 0 01-.094-.446l.282-9.044 3.795 1.45c-.323.224.031.774.031.774s-.804.47-.45.896z" fill="#000"/><path d="M165.037 97.441c.35.424.129 2.338.129 2.338l-.964 1.602s.058 1.032.064 2.428l-1.657.517a.945.945 0 01-1.227-.931l.283-9.075 3.792 1.453c-.324.224.03.774.03.774s-.804.468-.45.894z" fill="#fff"/><path d="M166.295 93.126s-.258 1.646-.903 1.742c-.645.097-.934 2.662-1.577 2.573-.643-.09-.217-2.387-.194-2.832.022-.445-.702-2.29-.162-2.708.54-.42 2.258 0 2.258 0l.578 1.225z" fill="#CF6F80"/><path opacity=".1" d="M167.659 80.454L168.873 78s.486 1.87.486 2.87c0 .998.676 1.097.676 1.097s.742.876.351 1.516-.547 2.224-.547 2.224.128 3.03-.452 3.45c-.58.418-.71 1.419-.71 1.419s-1.064 1.902-1.031 2.354c.034.452-1.482 3.514-1.482 3.514s.741-3.805-3.579-5.45c0 0-.034-1.29.289-1.643.322-.354.825-.526.51-2.307-.316-1.78-.091-3.928-.091-4.357 0-.43.967-3.106.967-3.106l3.399.873z" fill="#000"/><path d="M168.199 77.65l1.062.35s.485 1.87.485 2.87c0 .998.677 1.097.677 1.097s.741.876.35 1.516-.548 2.224-.548 2.224.129 3.03-.451 3.45c-.58.418-.701 1.419-.701 1.419s-1.064 1.902-1.03 2.354c.033.452-1.485 3.514-1.485 3.514s.741-3.805-3.579-5.45c0 0-.031-1.29.291-1.643.323-.354.826-.526.51-2.307-.315-1.78-.091-3.928-.091-4.357 0-.43.967-3.106.967-3.106l3.543-1.931z" fill="#fff"/><path opacity=".1" d="M144.734 141.249s1.693-1.064 2.804-.291c1.111.773-2.804.291-2.804.291zM157.893 137.959s1.498-.192 2.757 1.162c1.258 1.355-2.757-1.162-2.757-1.162z" fill="#000"/><g opacity=".1" fill="#000"><path opacity=".1" d="M160.082 53.198c-.216.188-.493.32-.636.566-.123.212-.127.475-.225.701-.098.227-.384.414-.583.27-.046-1.577-.822-3.058-1.778-4.32a4.467 4.467 0 00-.962-.997 1.884 1.884 0 00-1.309-.372c-.526.072-.989.43-1.52.475-.701.058-1.33-.428-2.026-.45a1.981 1.981 0 00-1.486.69 4.057 4.057 0 00-.797 1.478 8.657 8.657 0 00-.446 2.552c-.01.489-.056 1.099-.508 1.28.011.131.011.262 0 .392.458-.175.503-.794.514-1.285a8.625 8.625 0 01.445-2.552c.16-.543.431-1.046.797-1.477a1.98 1.98 0 011.487-.693c.701.025 1.332.51 2.026.45.525-.043.992-.4 1.519-.472.467-.044.934.087 1.31.37a4.5 4.5 0 01.962.998c.955 1.262 1.731 2.738 1.777 4.32.2.144.485-.045.584-.27.098-.223.101-.486.224-.7.144-.247.421-.38.636-.566.547-.472.684-1.266.663-1.986v-.067c-.035.628-.202 1.264-.668 1.665zM147.142 53.076c-.402-.444-.952-.742-1.322-1.212a2.548 2.548 0 01-.51-1.433 2.7 2.7 0 00.51 1.82c.37.47.92.767 1.322 1.21.387.434.62.983.662 1.564a2.614 2.614 0 00-.662-1.95zM161.09 47.782c-.104.43-.288.838-.372 1.271-.05.293-.069.59-.054.887a3.35 3.35 0 01.054-.5c.084-.432.268-.84.372-1.27.059-.237.079-.482.057-.726-.011.114-.03.227-.057.338z"/></g><path opacity=".1" d="M24.458 147.028c9.432 0 17.078-1.228 17.078-2.743s-7.646-2.743-17.078-2.743c-9.431 0-17.078 1.228-17.078 2.743s7.647 2.743 17.078 2.743z" fill="#1AADBB"/><path d="M25.009 91.738h-1.1v24.742h1.1V91.738z" fill="#535461"/><path d="M31.916 116.407l-.07 1.114-.097 1.578-.04.655-.098 1.578-.042.655-.096 1.578-1.11 17.889a3.028 3.028 0 01-3.023 2.843h-5.761a3.028 3.028 0 01-3.024-2.855l-1.11-17.89-.096-1.577-.04-.656-.1-1.577-.04-.655-.096-1.578-.07-1.115a1.577 1.577 0 011.566-1.666h11.782a1.578 1.578 0 011.565 1.679z" fill="#3F3D56"/><path d="M31.846 117.52l-.098 1.574H17.169l-.098-1.574h14.775zM31.707 119.749l-.096 1.574H17.308l-.099-1.574h14.498zM31.569 121.98l-.097 1.572H17.446l-.098-1.572h14.22z" fill="#9D9CB5"/><path d="M15.4 101.013c6.401 4.631 9.067 11.873 9.067 11.873s-7.712-.265-14.114-4.896C3.95 103.36 1.28 96.123 1.28 96.123s7.712.26 14.12 4.89z" fill="#1AADBB"/><path d="M1.281 96.123s8.004 4.443 10.572 8.122c2.568 3.679 12.607 8.644 12.607 8.644" stroke="#535461" stroke-width="2" stroke-miterlimit="10"/><path d="M19.525 91.685c3.484 2.519 4.935 6.46 4.935 6.46s-4.206-.143-7.682-2.662c-3.475-2.518-4.935-6.462-4.935-6.462s4.2.144 7.682 2.664z" fill="#1AADBB"/><path d="M11.843 89.021s4.357 2.419 5.755 4.42c1.4 2.002 6.862 4.705 6.862 4.705" stroke="#535461" stroke-width="2" stroke-miterlimit="10"/><path d="M29.522 97.946c-4.002 4.397-4.848 10.144-4.848 10.144s5.642-1.384 9.64-5.784c3.997-4.399 4.847-10.144 4.847-10.144s-5.638 1.386-9.64 5.784z" fill="#1AADBB"/><path d="M39.165 92.164s-5.212 4.508-6.538 7.613c-1.325 3.106-7.953 8.313-7.953 8.313" stroke="#535461" stroke-width="2" stroke-miterlimit="10"/><defs><linearGradient id="paint0_linear" x1="82.787" y1="146.446" x2="82.787" y2="45.203" gradientUnits="userSpaceOnUse"><stop stop-color="gray" stop-opacity=".25"/><stop offset=".54" stop-color="gray" stop-opacity=".12"/><stop offset="1" stop-color="gray" stop-opacity=".1"/></linearGradient><linearGradient id="paint1_linear" x1="33350.9" y1="94881.1" x2="33350.9" y2="28521.1" gradientUnits="userSpaceOnUse"><stop stop-color="gray" stop-opacity=".25"/><stop offset=".54" stop-color="gray" stop-opacity=".12"/><stop offset="1" stop-color="gray" stop-opacity=".1"/></linearGradient></defs></svg>