<svg width="18" height="16" viewBox="0 0 18 16" fill="none" xmlns="http://www.w3.org/2000/svg">
    <path fill-rule="evenodd" clip-rule="evenodd" d="M17 0H1C0.45 0 0 0.45 0 1V3C0 3.55 0.45 4 1 4H17C17.55 4 18 3.55 18 3V1C18 0.45 17.55 0 17 0ZM1 6H17C17.55 6 18 6.45 18 7V8C18 8.55 17.55 9 17 9H1C0.45 9 0 8.55 0 8V7C0 6.45 0.45 6 1 6ZM1 11H17C17.55 11 18 11.45 18 12C18 12.55 17.55 13 17 13H1C0.45 13 0 12.55 0 12C0 11.45 0.45 11 1 11ZM0.5 15H17.5C17.78 15 18 15.22 18 15.5C18 15.78 17.78 16 17.5 16H0.5C0.22 16 0 15.78 0 15.5C0 15.22 0.22 15 0.5 15Z" fill="black" fill-opacity="0.54"/>
</svg>
